# MagicaVoxel @ ephtracy

# material
mtllib walking exp.mtl
usemtl palette

# normals
vn -1 0 0
vn 1 0 0
vn 0 -1 0
vn 0 1 0
vn 0 0 -1
vn 0 0 1

# texcoords
vt 0.00976562 0.5
vt 0.0722656 0.5
vt 0.380859 0.5

# verts
v 1 41 142
v 1 53 142
v 1 41 146
v 1 53 146
v 1 41 150
v 1 53 150
v 1 41 154
v 1 53 154
v 7 41 146
v 7 53 146
v 7 41 150
v 7 53 150
v 12 42 143
v 12 52 143
v 12 43 144
v 12 51 144
v 12 43 152
v 12 51 152
v 12 42 153
v 12 52 153
v 22 42 143
v 22 52 143
v 22 43 144
v 22 48 144
v 22 43 152
v 22 48 152
v 22 42 153
v 22 52 153
v 36 36 100
v 36 56 100
v 36 40 103
v 36 53 103
v 36 40 106
v 36 53 106
v 36 36 109
v 36 56 109
v 36 36 128
v 36 58 128
v 36 43 144
v 36 51 144
v 36 43 152
v 36 51 152
v 36 36 153
v 36 58 153
v 37 40 103
v 37 53 103
v 37 40 106
v 37 53 106
v 37 40 110
v 37 55 110
v 37 40 116
v 37 55 116
v 37 40 117
v 37 55 117
v 37 40 127
v 37 55 127
v 38 41 109
v 38 54 109
v 38 41 110
v 38 54 110
v 38 41 116
v 38 54 116
v 38 41 117
v 38 54 117
v 38 41 127
v 38 55 127
v 38 41 128
v 38 55 128
v 40 38 154
v 40 56 154
v 40 38 171
v 40 56 171
v 44 42 153
v 44 52 153
v 44 42 154
v 44 52 154
v 54 36 100
v 54 56 100
v 54 40 103
v 54 53 103
v 54 40 106
v 54 53 106
v 54 36 109
v 54 56 109
v 55 40 103
v 55 53 103
v 55 40 106
v 55 53 106
v 55 40 110
v 55 55 110
v 55 40 116
v 55 55 116
v 55 40 117
v 55 55 117
v 55 40 127
v 55 55 127
v 56 41 109
v 56 54 109
v 56 41 110
v 56 54 110
v 56 41 116
v 56 54 116
v 56 41 117
v 56 54 117
v 56 41 127
v 56 55 127
v 56 41 128
v 56 55 128
v 65 42 143
v 65 52 143
v 65 43 144
v 65 51 144
v 65 43 152
v 65 51 152
v 65 42 153
v 65 52 153
v 79 42 143
v 79 52 143
v 79 43 144
v 79 48 144
v 79 43 152
v 79 48 152
v 79 42 153
v 79 52 153
v 89 41 142
v 89 53 142
v 89 43 144
v 89 51 144
v 89 43 152
v 89 51 152
v 89 41 154
v 89 53 154
v 11 41 142
v 11 53 142
v 11 43 144
v 11 51 144
v 11 43 152
v 11 51 152
v 11 41 154
v 11 53 154
v 21 42 143
v 21 52 143
v 21 43 144
v 21 48 144
v 21 43 152
v 21 48 152
v 21 42 153
v 21 52 153
v 35 42 143
v 35 52 143
v 35 43 144
v 35 51 144
v 35 43 152
v 35 51 152
v 35 42 153
v 35 52 153
v 44 41 109
v 44 54 109
v 44 41 110
v 44 54 110
v 44 41 116
v 44 54 116
v 44 41 117
v 44 54 117
v 44 41 127
v 44 55 127
v 44 41 128
v 44 55 128
v 45 40 103
v 45 53 103
v 45 40 106
v 45 53 106
v 45 40 110
v 45 55 110
v 45 40 116
v 45 55 116
v 45 40 117
v 45 55 117
v 45 40 127
v 45 55 127
v 46 36 100
v 46 56 100
v 46 40 103
v 46 53 103
v 46 40 106
v 46 53 106
v 46 36 109
v 46 56 109
v 56 42 153
v 56 52 153
v 56 42 154
v 56 52 154
v 60 38 154
v 60 56 154
v 60 38 171
v 60 56 171
v 62 41 109
v 62 54 109
v 62 41 110
v 62 54 110
v 62 41 116
v 62 54 116
v 62 41 117
v 62 54 117
v 62 41 127
v 62 55 127
v 62 41 128
v 62 55 128
v 63 40 103
v 63 53 103
v 63 40 106
v 63 53 106
v 63 40 110
v 63 55 110
v 63 40 116
v 63 55 116
v 63 40 117
v 63 55 117
v 63 40 127
v 63 55 127
v 64 36 100
v 64 56 100
v 64 40 103
v 64 53 103
v 64 40 106
v 64 53 106
v 64 36 109
v 64 56 109
v 64 36 128
v 64 58 128
v 64 43 144
v 64 51 144
v 64 43 152
v 64 51 152
v 64 36 153
v 64 58 153
v 78 42 143
v 78 52 143
v 78 43 144
v 78 48 144
v 78 43 152
v 78 48 152
v 78 42 153
v 78 52 153
v 88 42 143
v 88 52 143
v 88 43 144
v 88 51 144
v 88 43 152
v 88 51 152
v 88 42 153
v 88 52 153
v 93 41 146
v 93 53 146
v 93 41 150
v 93 53 150
v 99 41 142
v 99 53 142
v 99 41 146
v 99 53 146
v 99 41 150
v 99 53 150
v 99 41 154
v 99 53 154
v 36 36 100
v 36 36 109
v 36 36 128
v 36 36 153
v 46 36 100
v 46 36 109
v 54 36 100
v 54 36 109
v 64 36 100
v 64 36 109
v 64 36 128
v 64 36 153
v 40 38 154
v 40 38 171
v 43 38 157
v 43 38 161
v 43 38 164
v 43 38 168
v 45 38 157
v 45 38 161
v 47 38 157
v 47 38 161
v 47 38 164
v 47 38 168
v 49 38 157
v 49 38 161
v 51 38 157
v 51 38 161
v 53 38 157
v 53 38 161
v 53 38 164
v 53 38 168
v 55 38 157
v 55 38 161
v 57 38 157
v 57 38 161
v 57 38 164
v 57 38 168
v 60 38 154
v 60 38 171
v 37 40 110
v 37 40 116
v 37 40 117
v 37 40 127
v 45 40 110
v 45 40 116
v 45 40 117
v 45 40 127
v 55 40 110
v 55 40 116
v 55 40 117
v 55 40 127
v 63 40 110
v 63 40 116
v 63 40 117
v 63 40 127
v 1 41 142
v 1 41 146
v 1 41 150
v 1 41 154
v 7 41 146
v 7 41 150
v 11 41 142
v 11 41 154
v 38 41 109
v 38 41 110
v 38 41 116
v 38 41 117
v 38 41 127
v 38 41 128
v 44 41 109
v 44 41 110
v 44 41 116
v 44 41 117
v 44 41 127
v 44 41 128
v 56 41 109
v 56 41 110
v 56 41 116
v 56 41 117
v 56 41 127
v 56 41 128
v 62 41 109
v 62 41 110
v 62 41 116
v 62 41 117
v 62 41 127
v 62 41 128
v 89 41 142
v 89 41 154
v 93 41 146
v 93 41 150
v 99 41 142
v 99 41 146
v 99 41 150
v 99 41 154
v 12 42 143
v 12 42 153
v 21 42 143
v 21 42 153
v 22 42 143
v 22 42 153
v 35 42 143
v 35 42 153
v 44 42 153
v 44 42 154
v 56 42 153
v 56 42 154
v 65 42 143
v 65 42 153
v 78 42 143
v 78 42 153
v 79 42 143
v 79 42 153
v 88 42 143
v 88 42 153
v 11 43 144
v 11 43 152
v 12 43 144
v 12 43 152
v 21 43 144
v 21 43 152
v 22 43 144
v 22 43 152
v 35 43 144
v 35 43 152
v 36 43 144
v 36 43 152
v 64 43 144
v 64 43 152
v 65 43 144
v 65 43 152
v 78 43 144
v 78 43 152
v 79 43 144
v 79 43 152
v 88 43 144
v 88 43 152
v 89 43 144
v 89 43 152
v 36 53 103
v 36 53 106
v 37 53 103
v 37 53 106
v 45 53 103
v 45 53 106
v 46 53 103
v 46 53 106
v 54 53 103
v 54 53 106
v 55 53 103
v 55 53 106
v 63 53 103
v 63 53 106
v 64 53 103
v 64 53 106
v 36 40 103
v 36 40 106
v 37 40 103
v 37 40 106
v 45 40 103
v 45 40 106
v 46 40 103
v 46 40 106
v 54 40 103
v 54 40 106
v 55 40 103
v 55 40 106
v 63 40 103
v 63 40 106
v 64 40 103
v 64 40 106
v 21 48 144
v 21 48 152
v 22 48 144
v 22 48 152
v 78 48 144
v 78 48 152
v 79 48 144
v 79 48 152
v 11 51 144
v 11 51 152
v 12 51 144
v 12 51 152
v 35 51 144
v 35 51 152
v 36 51 144
v 36 51 152
v 64 51 144
v 64 51 152
v 65 51 144
v 65 51 152
v 88 51 144
v 88 51 152
v 89 51 144
v 89 51 152
v 12 52 143
v 12 52 153
v 21 52 143
v 21 52 153
v 22 52 143
v 22 52 153
v 35 52 143
v 35 52 153
v 44 52 153
v 44 52 154
v 56 52 153
v 56 52 154
v 65 52 143
v 65 52 153
v 78 52 143
v 78 52 153
v 79 52 143
v 79 52 153
v 88 52 143
v 88 52 153
v 1 53 142
v 1 53 146
v 1 53 150
v 1 53 154
v 7 53 146
v 7 53 150
v 11 53 142
v 11 53 154
v 89 53 142
v 89 53 154
v 93 53 146
v 93 53 150
v 99 53 142
v 99 53 146
v 99 53 150
v 99 53 154
v 38 54 109
v 38 54 110
v 38 54 116
v 38 54 117
v 44 54 109
v 44 54 110
v 44 54 116
v 44 54 117
v 56 54 109
v 56 54 110
v 56 54 116
v 56 54 117
v 62 54 109
v 62 54 110
v 62 54 116
v 62 54 117
v 37 55 110
v 37 55 116
v 37 55 117
v 37 55 127
v 38 55 127
v 38 55 128
v 44 55 127
v 44 55 128
v 45 55 110
v 45 55 116
v 45 55 117
v 45 55 127
v 55 55 110
v 55 55 116
v 55 55 117
v 55 55 127
v 56 55 127
v 56 55 128
v 62 55 127
v 62 55 128
v 63 55 110
v 63 55 116
v 63 55 117
v 63 55 127
v 36 56 100
v 36 56 109
v 40 56 154
v 40 56 171
v 46 56 100
v 46 56 109
v 54 56 100
v 54 56 109
v 60 56 154
v 60 56 171
v 64 56 100
v 64 56 109
v 36 58 128
v 36 58 153
v 64 58 128
v 64 58 153
v 36 36 100
v 46 36 100
v 54 36 100
v 64 36 100
v 36 56 100
v 46 56 100
v 54 56 100
v 64 56 100
v 36 40 106
v 37 40 106
v 45 40 106
v 46 40 106
v 54 40 106
v 55 40 106
v 63 40 106
v 64 40 106
v 36 53 106
v 37 53 106
v 45 53 106
v 46 53 106
v 54 53 106
v 55 53 106
v 63 53 106
v 64 53 106
v 37 40 110
v 45 40 110
v 55 40 110
v 63 40 110
v 38 41 110
v 44 41 110
v 56 41 110
v 62 41 110
v 38 54 110
v 44 54 110
v 56 54 110
v 62 54 110
v 37 55 110
v 45 55 110
v 55 55 110
v 63 55 110
v 37 40 117
v 45 40 117
v 55 40 117
v 63 40 117
v 38 41 117
v 44 41 117
v 56 41 117
v 62 41 117
v 38 54 117
v 44 54 117
v 56 54 117
v 62 54 117
v 37 55 117
v 45 55 117
v 55 55 117
v 63 55 117
v 36 36 128
v 64 36 128
v 38 41 128
v 44 41 128
v 56 41 128
v 62 41 128
v 38 55 128
v 44 55 128
v 56 55 128
v 62 55 128
v 36 58 128
v 64 58 128
v 1 41 142
v 11 41 142
v 89 41 142
v 99 41 142
v 1 53 142
v 11 53 142
v 89 53 142
v 99 53 142
v 12 42 143
v 21 42 143
v 22 42 143
v 35 42 143
v 65 42 143
v 78 42 143
v 79 42 143
v 88 42 143
v 12 52 143
v 21 52 143
v 22 52 143
v 35 52 143
v 65 52 143
v 78 52 143
v 79 52 143
v 88 52 143
v 11 43 144
v 12 43 144
v 21 43 144
v 22 43 144
v 35 43 144
v 36 43 144
v 64 43 144
v 65 43 144
v 78 43 144
v 79 43 144
v 88 43 144
v 89 43 144
v 21 48 144
v 22 48 144
v 78 48 144
v 79 48 144
v 11 51 144
v 12 51 144
v 35 51 144
v 36 51 144
v 64 51 144
v 65 51 144
v 88 51 144
v 89 51 144
v 1 41 150
v 7 41 150
v 93 41 150
v 99 41 150
v 1 53 150
v 7 53 150
v 93 53 150
v 99 53 150
v 40 38 154
v 60 38 154
v 44 42 154
v 56 42 154
v 44 52 154
v 56 52 154
v 40 56 154
v 60 56 154
v 36 40 103
v 37 40 103
v 45 40 103
v 46 40 103
v 54 40 103
v 55 40 103
v 63 40 103
v 64 40 103
v 36 53 103
v 37 53 103
v 45 53 103
v 46 53 103
v 54 53 103
v 55 53 103
v 63 53 103
v 64 53 103
v 36 36 109
v 46 36 109
v 54 36 109
v 64 36 109
v 38 41 109
v 44 41 109
v 56 41 109
v 62 41 109
v 38 54 109
v 44 54 109
v 56 54 109
v 62 54 109
v 36 56 109
v 46 56 109
v 54 56 109
v 64 56 109
v 37 40 116
v 45 40 116
v 55 40 116
v 63 40 116
v 38 41 116
v 44 41 116
v 56 41 116
v 62 41 116
v 38 54 116
v 44 54 116
v 56 54 116
v 62 54 116
v 37 55 116
v 45 55 116
v 55 55 116
v 63 55 116
v 37 40 127
v 45 40 127
v 55 40 127
v 63 40 127
v 38 41 127
v 44 41 127
v 56 41 127
v 62 41 127
v 37 55 127
v 38 55 127
v 44 55 127
v 45 55 127
v 55 55 127
v 56 55 127
v 62 55 127
v 63 55 127
v 1 41 146
v 7 41 146
v 93 41 146
v 99 41 146
v 1 53 146
v 7 53 146
v 93 53 146
v 99 53 146
v 11 43 152
v 12 43 152
v 21 43 152
v 22 43 152
v 35 43 152
v 36 43 152
v 64 43 152
v 65 43 152
v 78 43 152
v 79 43 152
v 88 43 152
v 89 43 152
v 21 48 152
v 22 48 152
v 78 48 152
v 79 48 152
v 11 51 152
v 12 51 152
v 35 51 152
v 36 51 152
v 64 51 152
v 65 51 152
v 88 51 152
v 89 51 152
v 36 36 153
v 64 36 153
v 12 42 153
v 21 42 153
v 22 42 153
v 35 42 153
v 44 42 153
v 56 42 153
v 65 42 153
v 78 42 153
v 79 42 153
v 88 42 153
v 12 52 153
v 21 52 153
v 22 52 153
v 35 52 153
v 44 52 153
v 56 52 153
v 65 52 153
v 78 52 153
v 79 52 153
v 88 52 153
v 36 58 153
v 64 58 153
v 1 41 154
v 11 41 154
v 89 41 154
v 99 41 154
v 1 53 154
v 11 53 154
v 89 53 154
v 99 53 154
v 40 38 171
v 60 38 171
v 40 56 171
v 60 56 171

# faces
f 3/2/1 2/2/1 1/2/1
f 4/2/1 2/2/1 3/2/1
f 7/2/1 6/2/1 5/2/1
f 8/2/1 6/2/1 7/2/1
f 11/2/1 10/2/1 9/2/1
f 12/2/1 10/2/1 11/2/1
f 15/1/1 14/1/1 13/1/1
f 16/1/1 14/1/1 15/1/1
f 17/1/1 15/1/1 13/1/1
f 18/1/1 14/1/1 16/1/1
f 19/1/1 17/1/1 13/1/1
f 19/1/1 18/1/1 17/1/1
f 20/1/1 14/1/1 18/1/1
f 20/1/1 18/1/1 19/1/1
f 23/1/1 22/1/1 21/1/1
f 24/1/1 22/1/1 23/1/1
f 25/1/1 23/1/1 21/1/1
f 26/1/1 22/1/1 24/1/1
f 27/1/1 25/1/1 21/1/1
f 27/1/1 26/1/1 25/1/1
f 28/1/1 22/1/1 26/1/1
f 28/1/1 26/1/1 27/1/1
f 31/3/1 30/3/1 29/3/1
f 32/3/1 30/3/1 31/3/1
f 33/3/1 31/3/1 29/3/1
f 34/3/1 30/3/1 32/3/1
f 35/3/1 33/3/1 29/3/1
f 35/3/1 34/3/1 33/3/1
f 36/3/1 30/3/1 34/3/1
f 36/3/1 34/3/1 35/3/1
f 39/1/1 38/1/1 37/1/1
f 40/1/1 38/1/1 39/1/1
f 41/1/1 39/1/1 37/1/1
f 42/1/1 38/1/1 40/1/1
f 43/1/1 41/1/1 37/1/1
f 43/1/1 42/1/1 41/1/1
f 44/1/1 38/1/1 42/1/1
f 44/1/1 42/1/1 43/1/1
f 47/2/1 46/2/1 45/2/1
f 48/2/1 46/2/1 47/2/1
f 51/1/1 50/1/1 49/1/1
f 52/1/1 50/1/1 51/1/1
f 55/1/1 54/1/1 53/1/1
f 56/1/1 54/1/1 55/1/1
f 59/1/1 58/1/1 57/1/1
f 60/1/1 58/1/1 59/1/1
f 63/1/1 62/1/1 61/1/1
f 64/1/1 62/1/1 63/1/1
f 67/1/1 66/1/1 65/1/1
f 68/1/1 66/1/1 67/1/1
f 71/1/1 70/1/1 69/1/1
f 72/1/1 70/1/1 71/1/1
f 75/1/1 74/1/1 73/1/1
f 76/1/1 74/1/1 75/1/1
f 79/3/1 78/3/1 77/3/1
f 80/3/1 78/3/1 79/3/1
f 81/3/1 79/3/1 77/3/1
f 82/3/1 78/3/1 80/3/1
f 83/3/1 81/3/1 77/3/1
f 83/3/1 82/3/1 81/3/1
f 84/3/1 78/3/1 82/3/1
f 84/3/1 82/3/1 83/3/1
f 87/2/1 86/2/1 85/2/1
f 88/2/1 86/2/1 87/2/1
f 91/1/1 90/1/1 89/1/1
f 92/1/1 90/1/1 91/1/1
f 95/1/1 94/1/1 93/1/1
f 96/1/1 94/1/1 95/1/1
f 99/1/1 98/1/1 97/1/1
f 100/1/1 98/1/1 99/1/1
f 103/1/1 102/1/1 101/1/1
f 104/1/1 102/1/1 103/1/1
f 107/1/1 106/1/1 105/1/1
f 108/1/1 106/1/1 107/1/1
f 111/1/1 110/1/1 109/1/1
f 112/1/1 110/1/1 111/1/1
f 113/1/1 111/1/1 109/1/1
f 114/1/1 110/1/1 112/1/1
f 115/1/1 113/1/1 109/1/1
f 115/1/1 114/1/1 113/1/1
f 116/1/1 110/1/1 114/1/1
f 116/1/1 114/1/1 115/1/1
f 119/1/1 118/1/1 117/1/1
f 120/1/1 118/1/1 119/1/1
f 121/1/1 119/1/1 117/1/1
f 122/1/1 118/1/1 120/1/1
f 123/1/1 121/1/1 117/1/1
f 123/1/1 122/1/1 121/1/1
f 124/1/1 118/1/1 122/1/1
f 124/1/1 122/1/1 123/1/1
f 127/2/1 126/2/1 125/2/1
f 128/2/1 126/2/1 127/2/1
f 129/2/1 127/2/1 125/2/1
f 130/2/1 126/2/1 128/2/1
f 131/2/1 129/2/1 125/2/1
f 131/2/1 130/2/1 129/2/1
f 132/2/1 126/2/1 130/2/1
f 132/2/1 130/2/1 131/2/1
f 133/2/2 134/2/2 135/2/2
f 135/2/2 134/2/2 136/2/2
f 133/2/2 135/2/2 137/2/2
f 136/2/2 134/2/2 138/2/2
f 133/2/2 137/2/2 139/2/2
f 137/2/2 138/2/2 139/2/2
f 138/2/2 134/2/2 140/2/2
f 139/2/2 138/2/2 140/2/2
f 141/1/2 142/1/2 143/1/2
f 143/1/2 142/1/2 144/1/2
f 141/1/2 143/1/2 145/1/2
f 144/1/2 142/1/2 146/1/2
f 141/1/2 145/1/2 147/1/2
f 145/1/2 146/1/2 147/1/2
f 146/1/2 142/1/2 148/1/2
f 147/1/2 146/1/2 148/1/2
f 149/1/2 150/1/2 151/1/2
f 151/1/2 150/1/2 152/1/2
f 149/1/2 151/1/2 153/1/2
f 152/1/2 150/1/2 154/1/2
f 149/1/2 153/1/2 155/1/2
f 153/1/2 154/1/2 155/1/2
f 154/1/2 150/1/2 156/1/2
f 155/1/2 154/1/2 156/1/2
f 157/1/2 158/1/2 159/1/2
f 159/1/2 158/1/2 160/1/2
f 161/1/2 162/1/2 163/1/2
f 163/1/2 162/1/2 164/1/2
f 165/1/2 166/1/2 167/1/2
f 167/1/2 166/1/2 168/1/2
f 169/2/2 170/2/2 171/2/2
f 171/2/2 170/2/2 172/2/2
f 173/1/2 174/1/2 175/1/2
f 175/1/2 174/1/2 176/1/2
f 177/1/2 178/1/2 179/1/2
f 179/1/2 178/1/2 180/1/2
f 181/3/2 182/3/2 183/3/2
f 183/3/2 182/3/2 184/3/2
f 181/3/2 183/3/2 185/3/2
f 184/3/2 182/3/2 186/3/2
f 181/3/2 185/3/2 187/3/2
f 185/3/2 186/3/2 187/3/2
f 186/3/2 182/3/2 188/3/2
f 187/3/2 186/3/2 188/3/2
f 189/1/2 190/1/2 191/1/2
f 191/1/2 190/1/2 192/1/2
f 193/1/2 194/1/2 195/1/2
f 195/1/2 194/1/2 196/1/2
f 197/1/2 198/1/2 199/1/2
f 199/1/2 198/1/2 200/1/2
f 201/1/2 202/1/2 203/1/2
f 203/1/2 202/1/2 204/1/2
f 205/1/2 206/1/2 207/1/2
f 207/1/2 206/1/2 208/1/2
f 209/2/2 210/2/2 211/2/2
f 211/2/2 210/2/2 212/2/2
f 213/1/2 214/1/2 215/1/2
f 215/1/2 214/1/2 216/1/2
f 217/1/2 218/1/2 219/1/2
f 219/1/2 218/1/2 220/1/2
f 221/3/2 222/3/2 223/3/2
f 223/3/2 222/3/2 224/3/2
f 221/3/2 223/3/2 225/3/2
f 224/3/2 222/3/2 226/3/2
f 221/3/2 225/3/2 227/3/2
f 225/3/2 226/3/2 227/3/2
f 226/3/2 222/3/2 228/3/2
f 227/3/2 226/3/2 228/3/2
f 229/1/2 230/1/2 231/1/2
f 231/1/2 230/1/2 232/1/2
f 229/1/2 231/1/2 233/1/2
f 232/1/2 230/1/2 234/1/2
f 229/1/2 233/1/2 235/1/2
f 233/1/2 234/1/2 235/1/2
f 234/1/2 230/1/2 236/1/2
f 235/1/2 234/1/2 236/1/2
f 237/1/2 238/1/2 239/1/2
f 239/1/2 238/1/2 240/1/2
f 237/1/2 239/1/2 241/1/2
f 240/1/2 238/1/2 242/1/2
f 237/1/2 241/1/2 243/1/2
f 241/1/2 242/1/2 243/1/2
f 242/1/2 238/1/2 244/1/2
f 243/1/2 242/1/2 244/1/2
f 245/1/2 246/1/2 247/1/2
f 247/1/2 246/1/2 248/1/2
f 245/1/2 247/1/2 249/1/2
f 248/1/2 246/1/2 250/1/2
f 245/1/2 249/1/2 251/1/2
f 249/1/2 250/1/2 251/1/2
f 250/1/2 246/1/2 252/1/2
f 251/1/2 250/1/2 252/1/2
f 253/2/2 254/2/2 255/2/2
f 255/2/2 254/2/2 256/2/2
f 257/2/2 258/2/2 259/2/2
f 259/2/2 258/2/2 260/2/2
f 261/2/2 262/2/2 263/2/2
f 263/2/2 262/2/2 264/2/2
f 269/3/3 266/3/3 265/3/3
f 270/3/3 266/3/3 269/3/3
f 273/3/3 272/3/3 271/3/3
f 274/3/3 272/3/3 273/3/3
f 275/1/3 268/1/3 267/1/3
f 276/1/3 268/1/3 275/1/3
f 279/1/3 278/1/3 277/1/3
f 280/1/3 278/1/3 279/1/3
f 281/1/3 278/1/3 280/1/3
f 282/1/3 278/1/3 281/1/3
f 283/1/3 279/1/3 277/1/3
f 283/3/3 280/3/3 279/3/3
f 284/1/3 281/1/3 280/1/3
f 284/3/3 280/3/3 283/3/3
f 285/1/3 283/1/3 277/1/3
f 285/2/3 284/2/3 283/2/3
f 286/1/3 281/1/3 284/1/3
f 286/2/3 284/2/3 285/2/3
f 287/3/3 282/3/3 281/3/3
f 287/1/3 281/1/3 286/1/3
f 288/1/3 278/1/3 282/1/3
f 288/3/3 282/3/3 287/3/3
f 289/3/3 286/3/3 285/3/3
f 289/1/3 285/1/3 277/1/3
f 290/1/3 287/1/3 286/1/3
f 290/3/3 286/3/3 289/3/3
f 290/1/3 288/1/3 287/1/3
f 291/1/3 289/1/3 277/1/3
f 291/2/3 290/2/3 289/2/3
f 292/1/3 288/1/3 290/1/3
f 292/2/3 290/2/3 291/2/3
f 293/1/3 291/1/3 277/1/3
f 293/3/3 292/3/3 291/3/3
f 294/1/3 288/1/3 292/1/3
f 294/3/3 292/3/3 293/3/3
f 295/1/3 288/1/3 294/1/3
f 296/1/3 278/1/3 288/1/3
f 296/1/3 288/1/3 295/1/3
f 297/1/3 293/1/3 277/1/3
f 297/2/3 294/2/3 293/2/3
f 298/1/3 295/1/3 294/1/3
f 298/2/3 294/2/3 297/2/3
f 299/1/3 297/1/3 277/1/3
f 299/3/3 298/3/3 297/3/3
f 300/1/3 295/1/3 298/1/3
f 300/3/3 298/3/3 299/3/3
f 301/3/3 296/3/3 295/3/3
f 301/1/3 295/1/3 300/1/3
f 302/1/3 278/1/3 296/1/3
f 302/3/3 296/3/3 301/3/3
f 303/1/3 301/1/3 300/1/3
f 303/1/3 299/1/3 277/1/3
f 303/1/3 302/1/3 301/1/3
f 303/1/3 300/1/3 299/1/3
f 304/1/3 278/1/3 302/1/3
f 304/1/3 302/1/3 303/1/3
f 309/1/3 306/1/3 305/1/3
f 310/1/3 306/1/3 309/1/3
f 311/1/3 308/1/3 307/1/3
f 312/1/3 308/1/3 311/1/3
f 317/1/3 314/1/3 313/1/3
f 318/1/3 314/1/3 317/1/3
f 319/1/3 316/1/3 315/1/3
f 320/1/3 316/1/3 319/1/3
f 325/2/3 322/2/3 321/2/3
f 326/2/3 324/2/3 323/2/3
f 327/2/3 325/2/3 321/2/3
f 327/2/3 326/2/3 325/2/3
f 328/2/3 324/2/3 326/2/3
f 328/2/3 326/2/3 327/2/3
f 335/1/3 330/1/3 329/1/3
f 336/1/3 330/1/3 335/1/3
f 337/1/3 332/1/3 331/1/3
f 338/1/3 332/1/3 337/1/3
f 339/1/3 334/1/3 333/1/3
f 340/1/3 334/1/3 339/1/3
f 347/1/3 342/1/3 341/1/3
f 348/1/3 342/1/3 347/1/3
f 349/1/3 344/1/3 343/1/3
f 350/1/3 344/1/3 349/1/3
f 351/1/3 346/1/3 345/1/3
f 352/1/3 346/1/3 351/1/3
f 355/2/3 354/2/3 353/2/3
f 356/2/3 354/2/3 355/2/3
f 357/2/3 355/2/3 353/2/3
f 358/2/3 355/2/3 357/2/3
f 359/2/3 354/2/3 356/2/3
f 360/2/3 354/2/3 359/2/3
f 363/1/3 362/1/3 361/1/3
f 364/1/3 362/1/3 363/1/3
f 367/1/3 366/1/3 365/1/3
f 368/1/3 366/1/3 367/1/3
f 371/1/3 370/1/3 369/1/3
f 372/1/3 370/1/3 371/1/3
f 375/1/3 374/1/3 373/1/3
f 376/1/3 374/1/3 375/1/3
f 379/1/3 378/1/3 377/1/3
f 380/1/3 378/1/3 379/1/3
f 383/1/3 382/1/3 381/1/3
f 384/1/3 382/1/3 383/1/3
f 387/1/3 386/1/3 385/1/3
f 388/1/3 386/1/3 387/1/3
f 391/1/3 390/1/3 389/1/3
f 392/1/3 390/1/3 391/1/3
f 395/1/3 394/1/3 393/1/3
f 396/1/3 394/1/3 395/1/3
f 399/1/3 398/1/3 397/1/3
f 400/1/3 398/1/3 399/1/3
f 403/1/3 402/1/3 401/1/3
f 404/1/3 402/1/3 403/1/3
f 407/3/3 406/3/3 405/3/3
f 408/3/3 406/3/3 407/3/3
f 411/3/3 410/3/3 409/3/3
f 412/3/3 410/3/3 411/3/3
f 415/3/3 414/3/3 413/3/3
f 416/3/3 414/3/3 415/3/3
f 419/3/3 418/3/3 417/3/3
f 420/3/3 418/3/3 419/3/3
f 421/3/4 422/3/4 423/3/4
f 423/3/4 422/3/4 424/3/4
f 425/3/4 426/3/4 427/3/4
f 427/3/4 426/3/4 428/3/4
f 429/3/4 430/3/4 431/3/4
f 431/3/4 430/3/4 432/3/4
f 433/3/4 434/3/4 435/3/4
f 435/3/4 434/3/4 436/3/4
f 437/1/4 438/1/4 439/1/4
f 439/1/4 438/1/4 440/1/4
f 441/1/4 442/1/4 443/1/4
f 443/1/4 442/1/4 444/1/4
f 445/1/4 446/1/4 447/1/4
f 447/1/4 446/1/4 448/1/4
f 449/1/4 450/1/4 451/1/4
f 451/1/4 450/1/4 452/1/4
f 453/1/4 454/1/4 455/1/4
f 455/1/4 454/1/4 456/1/4
f 457/1/4 458/1/4 459/1/4
f 459/1/4 458/1/4 460/1/4
f 461/1/4 462/1/4 463/1/4
f 463/1/4 462/1/4 464/1/4
f 465/1/4 466/1/4 467/1/4
f 467/1/4 466/1/4 468/1/4
f 469/1/4 470/1/4 471/1/4
f 471/1/4 470/1/4 472/1/4
f 473/1/4 474/1/4 475/1/4
f 475/1/4 474/1/4 476/1/4
f 477/1/4 478/1/4 479/1/4
f 479/1/4 478/1/4 480/1/4
f 481/2/4 482/2/4 485/2/4
f 483/2/4 484/2/4 486/2/4
f 481/2/4 485/2/4 487/2/4
f 485/2/4 486/2/4 487/2/4
f 486/2/4 484/2/4 488/2/4
f 487/2/4 486/2/4 488/2/4
f 489/2/4 490/2/4 491/2/4
f 491/2/4 490/2/4 492/2/4
f 489/2/4 491/2/4 493/2/4
f 493/2/4 491/2/4 494/2/4
f 492/2/4 490/2/4 495/2/4
f 495/2/4 490/2/4 496/2/4
f 497/1/4 498/1/4 501/1/4
f 501/1/4 498/1/4 502/1/4
f 499/1/4 500/1/4 503/1/4
f 503/1/4 500/1/4 504/1/4
f 505/1/4 506/1/4 509/1/4
f 509/1/4 506/1/4 510/1/4
f 507/1/4 508/1/4 511/1/4
f 511/1/4 508/1/4 512/1/4
f 515/1/4 516/1/4 517/1/4
f 515/1/4 517/1/4 519/1/4
f 517/1/4 518/1/4 519/1/4
f 519/1/4 518/1/4 520/1/4
f 513/1/4 514/1/4 521/1/4
f 521/1/4 514/1/4 522/1/4
f 515/1/4 519/1/4 523/1/4
f 523/1/4 519/1/4 524/1/4
f 527/1/4 528/1/4 529/1/4
f 527/1/4 529/1/4 531/1/4
f 529/1/4 530/1/4 531/1/4
f 531/1/4 530/1/4 532/1/4
f 525/1/4 526/1/4 533/1/4
f 533/1/4 526/1/4 534/1/4
f 527/1/4 531/1/4 535/1/4
f 535/1/4 531/1/4 536/1/4
f 537/3/4 538/3/4 541/3/4
f 541/3/4 538/3/4 542/3/4
f 539/1/4 540/1/4 545/1/4
f 545/1/4 540/1/4 546/1/4
f 543/3/4 544/3/4 547/3/4
f 547/3/4 544/3/4 548/3/4
f 549/1/4 550/1/4 551/1/4
f 551/1/4 550/1/4 552/1/4
f 557/3/5 554/3/5 553/3/5
f 558/3/5 554/3/5 557/3/5
f 559/3/5 556/3/5 555/3/5
f 560/3/5 556/3/5 559/3/5
f 569/3/5 562/3/5 561/3/5
f 570/3/5 562/3/5 569/3/5
f 571/3/5 564/3/5 563/3/5
f 572/3/5 564/3/5 571/3/5
f 573/3/5 566/3/5 565/3/5
f 574/3/5 566/3/5 573/3/5
f 575/3/5 568/3/5 567/3/5
f 576/3/5 568/3/5 575/3/5
f 581/1/5 578/1/5 577/1/5
f 582/1/5 578/1/5 581/1/5
f 583/1/5 580/1/5 579/1/5
f 584/1/5 580/1/5 583/1/5
f 585/1/5 581/1/5 577/1/5
f 586/1/5 578/1/5 582/1/5
f 587/1/5 583/1/5 579/1/5
f 588/1/5 580/1/5 584/1/5
f 589/1/5 585/1/5 577/1/5
f 589/1/5 586/1/5 585/1/5
f 590/1/5 578/1/5 586/1/5
f 590/1/5 586/1/5 589/1/5
f 591/1/5 588/1/5 587/1/5
f 591/1/5 587/1/5 579/1/5
f 592/1/5 580/1/5 588/1/5
f 592/1/5 588/1/5 591/1/5
f 597/1/5 594/1/5 593/1/5
f 598/1/5 594/1/5 597/1/5
f 599/1/5 596/1/5 595/1/5
f 600/1/5 596/1/5 599/1/5
f 601/1/5 597/1/5 593/1/5
f 602/1/5 594/1/5 598/1/5
f 603/1/5 599/1/5 595/1/5
f 604/1/5 596/1/5 600/1/5
f 605/1/5 601/1/5 593/1/5
f 605/1/5 602/1/5 601/1/5
f 606/1/5 594/1/5 602/1/5
f 606/1/5 602/1/5 605/1/5
f 607/1/5 604/1/5 603/1/5
f 607/1/5 603/1/5 595/1/5
f 608/1/5 596/1/5 604/1/5
f 608/1/5 604/1/5 607/1/5
f 611/1/5 610/1/5 609/1/5
f 612/1/5 610/1/5 611/1/5
f 613/1/5 610/1/5 612/1/5
f 614/1/5 610/1/5 613/1/5
f 615/1/5 611/1/5 609/1/5
f 616/1/5 613/1/5 612/1/5
f 617/1/5 613/1/5 616/1/5
f 618/1/5 610/1/5 614/1/5
f 619/1/5 617/1/5 616/1/5
f 619/1/5 618/1/5 617/1/5
f 619/1/5 615/1/5 609/1/5
f 619/1/5 616/1/5 615/1/5
f 620/1/5 610/1/5 618/1/5
f 620/1/5 618/1/5 619/1/5
f 625/2/5 622/2/5 621/2/5
f 626/2/5 622/2/5 625/2/5
f 627/2/5 624/2/5 623/2/5
f 628/2/5 624/2/5 627/2/5
f 637/1/5 630/1/5 629/1/5
f 638/1/5 630/1/5 637/1/5
f 639/1/5 632/1/5 631/1/5
f 640/1/5 632/1/5 639/1/5
f 641/1/5 634/1/5 633/1/5
f 642/1/5 634/1/5 641/1/5
f 643/1/5 636/1/5 635/1/5
f 644/1/5 636/1/5 643/1/5
f 657/1/5 648/1/5 647/1/5
f 658/1/5 648/1/5 657/1/5
f 659/1/5 654/1/5 653/1/5
f 660/1/5 654/1/5 659/1/5
f 661/1/5 646/1/5 645/1/5
f 662/1/5 646/1/5 661/1/5
f 663/1/5 650/1/5 649/1/5
f 664/1/5 650/1/5 663/1/5
f 665/1/5 652/1/5 651/1/5
f 666/1/5 652/1/5 665/1/5
f 667/1/5 656/1/5 655/1/5
f 668/1/5 656/1/5 667/1/5
f 673/2/5 670/2/5 669/2/5
f 674/2/5 670/2/5 673/2/5
f 675/2/5 672/2/5 671/2/5
f 676/2/5 672/2/5 675/2/5
f 679/1/5 678/1/5 677/1/5
f 680/1/5 678/1/5 679/1/5
f 681/1/5 679/1/5 677/1/5
f 682/1/5 678/1/5 680/1/5
f 683/1/5 681/1/5 677/1/5
f 683/1/5 682/1/5 681/1/5
f 684/1/5 678/1/5 682/1/5
f 684/1/5 682/1/5 683/1/5
f 685/3/6 686/3/6 693/3/6
f 693/3/6 686/3/6 694/3/6
f 687/3/6 688/3/6 695/3/6
f 695/3/6 688/3/6 696/3/6
f 689/3/6 690/3/6 697/3/6
f 697/3/6 690/3/6 698/3/6
f 691/3/6 692/3/6 699/3/6
f 699/3/6 692/3/6 700/3/6
f 701/3/6 702/3/6 705/3/6
f 705/3/6 702/3/6 706/3/6
f 703/3/6 704/3/6 707/3/6
f 707/3/6 704/3/6 708/3/6
f 701/3/6 705/3/6 709/3/6
f 706/3/6 702/3/6 710/3/6
f 703/3/6 707/3/6 711/3/6
f 708/3/6 704/3/6 712/3/6
f 701/3/6 709/3/6 713/3/6
f 709/3/6 710/3/6 713/3/6
f 710/3/6 702/3/6 714/3/6
f 713/3/6 710/3/6 714/3/6
f 711/3/6 712/3/6 715/3/6
f 703/3/6 711/3/6 715/3/6
f 712/3/6 704/3/6 716/3/6
f 715/3/6 712/3/6 716/3/6
f 717/1/6 718/1/6 721/1/6
f 721/1/6 718/1/6 722/1/6
f 719/1/6 720/1/6 723/1/6
f 723/1/6 720/1/6 724/1/6
f 717/1/6 721/1/6 725/1/6
f 722/1/6 718/1/6 726/1/6
f 719/1/6 723/1/6 727/1/6
f 724/1/6 720/1/6 728/1/6
f 717/1/6 725/1/6 729/1/6
f 725/1/6 726/1/6 729/1/6
f 726/1/6 718/1/6 730/1/6
f 729/1/6 726/1/6 730/1/6
f 727/1/6 728/1/6 731/1/6
f 719/1/6 727/1/6 731/1/6
f 728/1/6 720/1/6 732/1/6
f 731/1/6 728/1/6 732/1/6
f 733/1/6 734/1/6 737/1/6
f 737/1/6 734/1/6 738/1/6
f 735/1/6 736/1/6 739/1/6
f 739/1/6 736/1/6 740/1/6
f 733/1/6 737/1/6 741/1/6
f 741/1/6 737/1/6 742/1/6
f 738/1/6 734/1/6 743/1/6
f 743/1/6 734/1/6 744/1/6
f 735/1/6 739/1/6 745/1/6
f 745/1/6 739/1/6 746/1/6
f 740/1/6 736/1/6 747/1/6
f 747/1/6 736/1/6 748/1/6
f 749/2/6 750/2/6 753/2/6
f 753/2/6 750/2/6 754/2/6
f 751/2/6 752/2/6 755/2/6
f 755/2/6 752/2/6 756/2/6
f 759/1/6 760/1/6 769/1/6
f 769/1/6 760/1/6 770/1/6
f 765/1/6 766/1/6 771/1/6
f 771/1/6 766/1/6 772/1/6
f 757/1/6 758/1/6 773/1/6
f 773/1/6 758/1/6 774/1/6
f 761/1/6 762/1/6 775/1/6
f 775/1/6 762/1/6 776/1/6
f 763/1/6 764/1/6 777/1/6
f 777/1/6 764/1/6 778/1/6
f 767/1/6 768/1/6 779/1/6
f 779/1/6 768/1/6 780/1/6
f 781/1/6 782/1/6 787/1/6
f 787/1/6 782/1/6 788/1/6
f 783/1/6 784/1/6 793/1/6
f 793/1/6 784/1/6 794/1/6
f 785/1/6 786/1/6 795/1/6
f 795/1/6 786/1/6 796/1/6
f 781/1/6 787/1/6 797/1/6
f 788/1/6 782/1/6 798/1/6
f 789/1/6 790/1/6 799/1/6
f 799/1/6 790/1/6 800/1/6
f 791/1/6 792/1/6 801/1/6
f 801/1/6 792/1/6 802/1/6
f 797/1/6 798/1/6 803/1/6
f 781/1/6 797/1/6 803/1/6
f 798/1/6 782/1/6 804/1/6
f 803/1/6 798/1/6 804/1/6
f 805/2/6 806/2/6 809/2/6
f 809/2/6 806/2/6 810/2/6
f 807/2/6 808/2/6 811/2/6
f 811/2/6 808/2/6 812/2/6
f 813/1/6 814/1/6 815/1/6
f 815/1/6 814/1/6 816/1/6
