# MagicaVoxel @ Ephtracy

# material
mtllib tracked robot armless.mtl
usemtl palette

# normals
vn -1 0 0
vn 1 0 0
vn 0 0 1
vn 0 0 -1
vn 0 -1 0
vn 0 1 0

# texcoords
vt 0.0761719 0.5
vt 0.318359 0.5
vt 0.380859 0.5
vt 0.888672 0.5

# verts
v -10 0 4
v -10 0 -10
v -10 2 2
v -10 2 -8
v -10 6 2
v -10 6 -8
v -10 8 4
v -10 8 -10
v -8 2 2
v -8 2 -8
v -8 6 2
v -8 6 -8
v -6 0 -10
v -6 0 -12
v -6 8 4
v -6 8 -10
v -6 14 4
v -6 14 2
v -6 14 -8
v -6 14 -12
v -6 24 2
v -6 24 -8
v 6 0 -10
v 6 0 -12
v 6 8 4
v 6 8 -10
v 6 14 4
v 6 14 2
v 6 14 -8
v 6 14 -12
v 6 24 2
v 6 24 -8
v 8 2 2
v 8 2 -8
v 8 6 2
v 8 6 -8
v 10 0 4
v 10 0 -10
v 10 2 2
v 10 2 -8
v 10 6 2
v 10 6 -8
v 10 8 4
v 10 8 -10
v -10 0 4
v -10 8 4
v -6 0 4
v -6 8 4
v -6 14 4
v 6 0 4
v 6 8 4
v 6 14 4
v 10 0 4
v 10 8 4
v -6 14 2
v -6 24 2
v -4 16 2
v -4 18 2
v -4 20 2
v -4 22 2
v -3 16 2
v -3 18 2
v -2 16 2
v -2 18 2
v -2 20 2
v -2 22 2
v -1 16 2
v -1 18 2
v 0 16 2
v 0 18 2
v 1 16 2
v 1 18 2
v 2 16 2
v 2 18 2
v 2 20 2
v 2 22 2
v 3 16 2
v 3 18 2
v 4 16 2
v 4 18 2
v 4 20 2
v 4 22 2
v 6 14 2
v 6 24 2
v -10 2 -8
v -10 6 -8
v -8 2 -8
v -8 6 -8
v 8 2 -8
v 8 6 -8
v 10 2 -8
v 10 6 -8
v -10 2 2
v -10 6 2
v -8 2 2
v -8 6 2
v 8 2 2
v 8 6 2
v 10 2 2
v 10 6 2
v -6 14 -8
v -6 24 -8
v 6 14 -8
v 6 24 -8
v -10 0 -10
v -10 8 -10
v -6 0 -10
v -6 8 -10
v 6 0 -10
v 6 8 -10
v 10 0 -10
v 10 8 -10
v -6 0 -12
v -6 14 -12
v 6 0 -12
v 6 14 -12
v -10 0 4
v -6 0 4
v 6 0 4
v 10 0 4
v -10 0 -10
v -6 0 -10
v 6 0 -10
v 10 0 -10
v -6 0 -12
v 6 0 -12
v -10 6 2
v -8 6 2
v 8 6 2
v 10 6 2
v -10 6 -8
v -8 6 -8
v 8 6 -8
v 10 6 -8
v -10 2 2
v -8 2 2
v 8 2 2
v 10 2 2
v -10 2 -8
v -8 2 -8
v 8 2 -8
v 10 2 -8
v -10 8 4
v -6 8 4
v 6 8 4
v 10 8 4
v -10 8 -10
v -6 8 -10
v 6 8 -10
v 10 8 -10
v -6 14 4
v 6 14 4
v -6 14 2
v 6 14 2
v -6 14 -8
v 6 14 -8
v -6 14 -12
v 6 14 -12
v -6 24 2
v 6 24 2
v -6 24 -8
v 6 24 -8

# faces
f 3/3/1 2/3/1 1/3/1
f 4/3/1 2/3/1 3/3/1
f 5/3/1 3/3/1 1/3/1
f 6/3/1 2/3/1 4/3/1
f 7/3/1 5/3/1 1/3/1
f 7/3/1 6/3/1 5/3/1
f 8/3/1 2/3/1 6/3/1
f 8/3/1 6/3/1 7/3/1
f 11/2/1 10/2/1 9/2/1
f 12/2/1 10/2/1 11/2/1
f 16/1/1 14/1/1 13/1/1
f 17/1/1 16/1/1 15/1/1
f 18/1/1 16/1/1 17/1/1
f 19/1/1 16/1/1 18/1/1
f 20/1/1 14/1/1 16/1/1
f 20/1/1 16/1/1 19/1/1
f 21/1/1 19/1/1 18/1/1
f 22/1/1 19/1/1 21/1/1
f 23/1/2 24/1/2 26/1/2
f 25/1/2 26/1/2 27/1/2
f 27/1/2 26/1/2 28/1/2
f 28/1/2 26/1/2 29/1/2
f 26/1/2 24/1/2 30/1/2
f 29/1/2 26/1/2 30/1/2
f 28/1/2 29/1/2 31/1/2
f 31/1/2 29/1/2 32/1/2
f 33/2/2 34/2/2 35/2/2
f 35/2/2 34/2/2 36/2/2
f 37/3/2 38/3/2 39/3/2
f 39/3/2 38/3/2 40/3/2
f 37/3/2 39/3/2 41/3/2
f 40/3/2 38/3/2 42/3/2
f 37/3/2 41/3/2 43/3/2
f 41/3/2 42/3/2 43/3/2
f 42/3/2 38/3/2 44/3/2
f 43/3/2 42/3/2 44/3/2
f 47/3/3 46/3/3 45/3/3
f 48/3/3 46/3/3 47/3/3
f 50/1/3 48/1/3 47/1/3
f 50/1/3 49/1/3 48/1/3
f 51/1/3 49/1/3 50/1/3
f 52/1/3 49/1/3 51/1/3
f 53/3/3 51/3/3 50/3/3
f 54/3/3 51/3/3 53/3/3
f 57/1/3 56/1/3 55/1/3
f 58/1/3 56/1/3 57/1/3
f 59/1/3 56/1/3 58/1/3
f 60/1/3 56/1/3 59/1/3
f 61/1/3 57/1/3 55/1/3
f 61/3/3 58/3/3 57/3/3
f 62/1/3 59/1/3 58/1/3
f 62/3/3 58/3/3 61/3/3
f 63/1/3 61/1/3 55/1/3
f 63/4/3 62/4/3 61/4/3
f 64/1/3 59/1/3 62/1/3
f 64/4/3 62/4/3 63/4/3
f 65/3/3 60/3/3 59/3/3
f 65/1/3 59/1/3 64/1/3
f 66/1/3 56/1/3 60/1/3
f 66/3/3 60/3/3 65/3/3
f 67/3/3 64/3/3 63/3/3
f 67/1/3 63/1/3 55/1/3
f 68/1/3 65/1/3 64/1/3
f 68/3/3 64/3/3 67/3/3
f 68/1/3 66/1/3 65/1/3
f 69/1/3 67/1/3 55/1/3
f 69/4/3 68/4/3 67/4/3
f 70/1/3 66/1/3 68/1/3
f 70/4/3 68/4/3 69/4/3
f 71/1/3 69/1/3 55/1/3
f 71/3/3 70/3/3 69/3/3
f 72/1/3 66/1/3 70/1/3
f 72/3/3 70/3/3 71/3/3
f 73/1/3 71/1/3 55/1/3
f 73/4/3 72/4/3 71/4/3
f 74/1/3 66/1/3 72/1/3
f 74/4/3 72/4/3 73/4/3
f 75/1/3 66/1/3 74/1/3
f 76/1/3 56/1/3 66/1/3
f 76/1/3 66/1/3 75/1/3
f 77/1/3 73/1/3 55/1/3
f 77/3/3 74/3/3 73/3/3
f 78/1/3 75/1/3 74/1/3
f 78/3/3 74/3/3 77/3/3
f 79/1/3 77/1/3 55/1/3
f 79/4/3 78/4/3 77/4/3
f 80/1/3 75/1/3 78/1/3
f 80/4/3 78/4/3 79/4/3
f 81/3/3 76/3/3 75/3/3
f 81/1/3 75/1/3 80/1/3
f 82/1/3 56/1/3 76/1/3
f 82/3/3 76/3/3 81/3/3
f 83/1/3 81/1/3 80/1/3
f 83/1/3 79/1/3 55/1/3
f 83/1/3 82/1/3 81/1/3
f 83/1/3 80/1/3 79/1/3
f 84/1/3 56/1/3 82/1/3
f 84/1/3 82/1/3 83/1/3
f 87/3/3 86/3/3 85/3/3
f 88/3/3 86/3/3 87/3/3
f 91/3/3 90/3/3 89/3/3
f 92/3/3 90/3/3 91/3/3
f 93/3/4 94/3/4 95/3/4
f 95/3/4 94/3/4 96/3/4
f 97/3/4 98/3/4 99/3/4
f 99/3/4 98/3/4 100/3/4
f 101/1/4 102/1/4 103/1/4
f 103/1/4 102/1/4 104/1/4
f 105/3/4 106/3/4 107/3/4
f 107/3/4 106/3/4 108/3/4
f 109/3/4 110/3/4 111/3/4
f 111/3/4 110/3/4 112/3/4
f 113/1/4 114/1/4 115/1/4
f 115/1/4 114/1/4 116/1/4
f 121/3/5 118/3/5 117/3/5
f 122/1/5 119/1/5 118/1/5
f 122/3/5 118/3/5 121/3/5
f 123/3/5 120/3/5 119/3/5
f 123/1/5 119/1/5 122/1/5
f 124/3/5 120/3/5 123/3/5
f 125/1/5 123/1/5 122/1/5
f 126/1/5 123/1/5 125/1/5
f 131/3/5 128/3/5 127/3/5
f 132/3/5 128/3/5 131/3/5
f 133/3/5 130/3/5 129/3/5
f 134/3/5 130/3/5 133/3/5
f 135/3/6 136/3/6 139/3/6
f 139/3/6 136/3/6 140/3/6
f 137/3/6 138/3/6 141/3/6
f 141/3/6 138/3/6 142/3/6
f 143/3/6 144/3/6 147/3/6
f 147/3/6 144/3/6 148/3/6
f 145/3/6 146/3/6 149/3/6
f 149/3/6 146/3/6 150/3/6
f 151/1/6 152/1/6 153/1/6
f 153/1/6 152/1/6 154/1/6
f 155/1/6 156/1/6 157/1/6
f 157/1/6 156/1/6 158/1/6
f 159/1/6 160/1/6 161/1/6
f 161/1/6 160/1/6 162/1/6
