# MagicaVoxel @ ephtracy

# material
mtllib tracked robot shooter.mtl
usemtl palette

# normals
vn -1 0 0
vn 1 0 0
vn 0 0 1
vn 0 0 -1
vn 0 -1 0
vn 0 1 0

# texcoords
vt 0.0761719 0.5
vt 0.193359 0.5
vt 0.318359 0.5
vt 0.380859 0.5
vt 0.888672 0.5

# verts
v -12 10 9
v -12 10 6
v -12 10 -5
v -12 17 9
v -12 17 6
v -12 17 -5
v -11 0 10
v -11 0 -8
v -11 2 8
v -11 2 -6
v -11 6 8
v -11 6 -6
v -11 8 10
v -11 8 -8
v -9 2 8
v -9 2 -6
v -9 6 8
v -9 6 -6
v -8 12 9
v -8 12 7
v -8 15 9
v -8 15 7
v -5 0 -8
v -5 0 -10
v -5 8 6
v -5 8 -8
v -5 10 6
v -5 10 -4
v -5 14 4
v -5 14 -4
v -5 14 -6
v -5 14 -10
v -5 24 4
v -5 24 -6
v 5 0 10
v 5 0 6
v 5 8 10
v 5 8 6
v 6 10 9
v 6 10 6
v 6 10 -4
v 6 10 -5
v 6 14 6
v 6 14 -4
v 6 17 9
v 6 17 6
v 6 17 -5
v 10 12 9
v 10 12 7
v 10 15 9
v 10 15 7
v -10 12 9
v -10 12 7
v -10 15 9
v -10 15 7
v -6 10 9
v -6 10 6
v -6 10 -4
v -6 10 -5
v -6 14 6
v -6 14 -4
v -6 17 9
v -6 17 6
v -6 17 -5
v -5 0 10
v -5 0 6
v -5 8 10
v -5 8 6
v 5 0 -8
v 5 0 -10
v 5 8 6
v 5 8 -8
v 5 10 6
v 5 10 -4
v 5 14 4
v 5 14 -4
v 5 14 -6
v 5 14 -10
v 5 24 4
v 5 24 -6
v 8 12 9
v 8 12 7
v 8 15 9
v 8 15 7
v 9 2 8
v 9 2 -6
v 9 6 8
v 9 6 -6
v 11 0 10
v 11 0 -8
v 11 2 8
v 11 2 -6
v 11 6 8
v 11 6 -6
v 11 8 10
v 11 8 -8
v 12 10 9
v 12 10 6
v 12 10 -5
v 12 17 9
v 12 17 6
v 12 17 -5
v -11 0 10
v -11 8 10
v -5 0 10
v -5 8 10
v 5 0 10
v 5 8 10
v 11 0 10
v 11 8 10
v -12 10 9
v -12 17 9
v -10 12 9
v -10 15 9
v -8 12 9
v -8 15 9
v -6 10 9
v -6 17 9
v 6 10 9
v 6 17 9
v 8 12 9
v 8 15 9
v 10 12 9
v 10 15 9
v 12 10 9
v 12 17 9
v -10 12 7
v -10 15 7
v -8 12 7
v -8 15 7
v 8 12 7
v 8 15 7
v 10 12 7
v 10 15 7
v -6 10 6
v -6 14 6
v -5 0 6
v -5 8 6
v -5 10 6
v 5 0 6
v 5 8 6
v 5 10 6
v 6 10 6
v 6 14 6
v -5 14 4
v -5 24 4
v -3 16 4
v -3 18 4
v -3 20 4
v -3 22 4
v -2 16 4
v -2 18 4
v -1 16 4
v -1 18 4
v -1 20 4
v -1 22 4
v 0 16 4
v 0 18 4
v 1 16 4
v 1 18 4
v 1 20 4
v 1 22 4
v 2 16 4
v 2 18 4
v 3 16 4
v 3 18 4
v 3 20 4
v 3 22 4
v 5 14 4
v 5 24 4
v -11 2 -6
v -11 6 -6
v -9 2 -6
v -9 6 -6
v 9 2 -6
v 9 6 -6
v 11 2 -6
v 11 6 -6
v -11 2 8
v -11 6 8
v -9 2 8
v -9 6 8
v 9 2 8
v 9 6 8
v 11 2 8
v 11 6 8
v -6 10 -4
v -6 14 -4
v -5 10 -4
v -5 14 -4
v 5 10 -4
v 5 14 -4
v 6 10 -4
v 6 14 -4
v -12 10 -5
v -12 17 -5
v -6 10 -5
v -6 17 -5
v 6 10 -5
v 6 17 -5
v 12 10 -5
v 12 17 -5
v -5 14 -6
v -5 24 -6
v 5 14 -6
v 5 24 -6
v -11 0 -8
v -11 8 -8
v -5 0 -8
v -5 8 -8
v 5 0 -8
v 5 8 -8
v 11 0 -8
v 11 8 -8
v -5 0 -10
v -5 14 -10
v 5 0 -10
v 5 14 -10
v -11 0 10
v -5 0 10
v 5 0 10
v 11 0 10
v -5 0 6
v 5 0 6
v -11 0 -8
v -5 0 -8
v 5 0 -8
v 11 0 -8
v -5 0 -10
v 5 0 -10
v -11 6 8
v -9 6 8
v 9 6 8
v 11 6 8
v -11 6 -6
v -9 6 -6
v 9 6 -6
v 11 6 -6
v -12 10 9
v -6 10 9
v 6 10 9
v 12 10 9
v -12 10 6
v -6 10 6
v -5 10 6
v 5 10 6
v 6 10 6
v 12 10 6
v -6 10 -4
v -5 10 -4
v 5 10 -4
v 6 10 -4
v -12 10 -5
v -6 10 -5
v 6 10 -5
v 12 10 -5
v -10 15 9
v -8 15 9
v 8 15 9
v 10 15 9
v -10 15 7
v -8 15 7
v 8 15 7
v 10 15 7
v -11 2 8
v -9 2 8
v 9 2 8
v 11 2 8
v -11 2 -6
v -9 2 -6
v 9 2 -6
v 11 2 -6
v -11 8 10
v -5 8 10
v 5 8 10
v 11 8 10
v -5 8 6
v 5 8 6
v -11 8 -8
v -5 8 -8
v 5 8 -8
v 11 8 -8
v -10 12 9
v -8 12 9
v 8 12 9
v 10 12 9
v -10 12 7
v -8 12 7
v 8 12 7
v 10 12 7
v -6 14 6
v 6 14 6
v -5 14 4
v 5 14 4
v -6 14 -4
v -5 14 -4
v 5 14 -4
v 6 14 -4
v -5 14 -6
v 5 14 -6
v -5 14 -10
v 5 14 -10
v -12 17 9
v -6 17 9
v 6 17 9
v 12 17 9
v -12 17 6
v -6 17 6
v 6 17 6
v 12 17 6
v -12 17 -5
v -6 17 -5
v 6 17 -5
v 12 17 -5
v -5 24 4
v 5 24 4
v -5 24 -6
v 5 24 -6

# faces
f 4/2/1 2/2/1 1/2/1
f 5/1/1 3/1/1 2/1/1
f 5/2/1 2/2/1 4/2/1
f 6/1/1 3/1/1 5/1/1
f 9/4/1 8/4/1 7/4/1
f 10/4/1 8/4/1 9/4/1
f 11/4/1 9/4/1 7/4/1
f 12/4/1 8/4/1 10/4/1
f 13/4/1 11/4/1 7/4/1
f 13/4/1 12/4/1 11/4/1
f 14/4/1 8/4/1 12/4/1
f 14/4/1 12/4/1 13/4/1
f 17/3/1 16/3/1 15/3/1
f 18/3/1 16/3/1 17/3/1
f 21/2/1 20/2/1 19/2/1
f 22/2/1 20/2/1 21/2/1
f 26/1/1 24/1/1 23/1/1
f 27/1/1 26/1/1 25/1/1
f 28/1/1 26/1/1 27/1/1
f 30/1/1 26/1/1 28/1/1
f 31/1/1 26/1/1 30/1/1
f 32/1/1 24/1/1 26/1/1
f 32/1/1 26/1/1 31/1/1
f 33/1/1 31/1/1 30/1/1
f 33/1/1 30/1/1 29/1/1
f 34/1/1 31/1/1 33/1/1
f 37/4/1 36/4/1 35/4/1
f 38/4/1 36/4/1 37/4/1
f 43/2/1 40/2/1 39/2/1
f 44/1/1 42/1/1 41/1/1
f 45/2/1 43/2/1 39/2/1
f 46/1/1 44/1/1 43/1/1
f 46/2/1 43/2/1 45/2/1
f 47/1/1 42/1/1 44/1/1
f 47/1/1 44/1/1 46/1/1
f 50/2/1 49/2/1 48/2/1
f 51/2/1 49/2/1 50/2/1
f 52/2/2 53/2/2 54/2/2
f 54/2/2 53/2/2 55/2/2
f 56/2/2 57/2/2 60/2/2
f 58/1/2 59/1/2 61/1/2
f 56/2/2 60/2/2 62/2/2
f 60/1/2 61/1/2 63/1/2
f 62/2/2 60/2/2 63/2/2
f 61/1/2 59/1/2 64/1/2
f 63/1/2 61/1/2 64/1/2
f 65/4/2 66/4/2 67/4/2
f 67/4/2 66/4/2 68/4/2
f 69/1/2 70/1/2 72/1/2
f 71/1/2 72/1/2 73/1/2
f 73/1/2 72/1/2 74/1/2
f 74/1/2 72/1/2 76/1/2
f 76/1/2 72/1/2 77/1/2
f 72/1/2 70/1/2 78/1/2
f 77/1/2 72/1/2 78/1/2
f 76/1/2 77/1/2 79/1/2
f 75/1/2 76/1/2 79/1/2
f 79/1/2 77/1/2 80/1/2
f 81/2/2 82/2/2 83/2/2
f 83/2/2 82/2/2 84/2/2
f 85/3/2 86/3/2 87/3/2
f 87/3/2 86/3/2 88/3/2
f 89/4/2 90/4/2 91/4/2
f 91/4/2 90/4/2 92/4/2
f 89/4/2 91/4/2 93/4/2
f 92/4/2 90/4/2 94/4/2
f 89/4/2 93/4/2 95/4/2
f 93/4/2 94/4/2 95/4/2
f 94/4/2 90/4/2 96/4/2
f 95/4/2 94/4/2 96/4/2
f 97/2/2 98/2/2 100/2/2
f 98/1/2 99/1/2 101/1/2
f 100/2/2 98/2/2 101/2/2
f 101/1/2 99/1/2 102/1/2
f 105/4/3 104/4/3 103/4/3
f 106/4/3 104/4/3 105/4/3
f 109/4/3 108/4/3 107/4/3
f 110/4/3 108/4/3 109/4/3
f 113/2/3 112/2/3 111/2/3
f 114/2/3 112/2/3 113/2/3
f 115/2/3 113/2/3 111/2/3
f 116/2/3 112/2/3 114/2/3
f 117/2/3 115/2/3 111/2/3
f 117/2/3 116/2/3 115/2/3
f 118/2/3 112/2/3 116/2/3
f 118/2/3 116/2/3 117/2/3
f 121/2/3 120/2/3 119/2/3
f 122/2/3 120/2/3 121/2/3
f 123/2/3 121/2/3 119/2/3
f 124/2/3 120/2/3 122/2/3
f 125/2/3 123/2/3 119/2/3
f 125/2/3 124/2/3 123/2/3
f 126/2/3 120/2/3 124/2/3
f 126/2/3 124/2/3 125/2/3
f 129/3/3 128/3/3 127/3/3
f 130/3/3 128/3/3 129/3/3
f 133/3/3 132/3/3 131/3/3
f 134/3/3 132/3/3 133/3/3
f 139/1/3 136/1/3 135/1/3
f 140/1/3 138/1/3 137/1/3
f 140/1/3 139/1/3 138/1/3
f 141/1/3 139/1/3 140/1/3
f 142/1/3 136/1/3 139/1/3
f 142/1/3 139/1/3 141/1/3
f 143/1/3 136/1/3 142/1/3
f 144/1/3 136/1/3 143/1/3
f 147/1/3 146/1/3 145/1/3
f 148/1/3 146/1/3 147/1/3
f 149/1/3 146/1/3 148/1/3
f 150/1/3 146/1/3 149/1/3
f 151/1/3 147/1/3 145/1/3
f 151/4/3 148/4/3 147/4/3
f 152/1/3 149/1/3 148/1/3
f 152/4/3 148/4/3 151/4/3
f 153/1/3 151/1/3 145/1/3
f 153/5/3 152/5/3 151/5/3
f 154/1/3 149/1/3 152/1/3
f 154/5/3 152/5/3 153/5/3
f 155/4/3 150/4/3 149/4/3
f 155/1/3 149/1/3 154/1/3
f 156/1/3 146/1/3 150/1/3
f 156/4/3 150/4/3 155/4/3
f 157/4/3 154/4/3 153/4/3
f 157/1/3 153/1/3 145/1/3
f 158/1/3 155/1/3 154/1/3
f 158/4/3 154/4/3 157/4/3
f 158/1/3 156/1/3 155/1/3
f 159/1/3 157/1/3 145/1/3
f 159/5/3 158/5/3 157/5/3
f 160/1/3 156/1/3 158/1/3
f 160/5/3 158/5/3 159/5/3
f 161/1/3 156/1/3 160/1/3
f 162/1/3 146/1/3 156/1/3
f 162/1/3 156/1/3 161/1/3
f 163/1/3 159/1/3 145/1/3
f 163/4/3 160/4/3 159/4/3
f 164/1/3 161/1/3 160/1/3
f 164/4/3 160/4/3 163/4/3
f 165/1/3 163/1/3 145/1/3
f 165/5/3 164/5/3 163/5/3
f 166/1/3 161/1/3 164/1/3
f 166/5/3 164/5/3 165/5/3
f 167/4/3 162/4/3 161/4/3
f 167/1/3 161/1/3 166/1/3
f 168/1/3 146/1/3 162/1/3
f 168/4/3 162/4/3 167/4/3
f 169/1/3 167/1/3 166/1/3
f 169/1/3 165/1/3 145/1/3
f 169/1/3 168/1/3 167/1/3
f 169/1/3 166/1/3 165/1/3
f 170/1/3 146/1/3 168/1/3
f 170/1/3 168/1/3 169/1/3
f 173/4/3 172/4/3 171/4/3
f 174/4/3 172/4/3 173/4/3
f 177/4/3 176/4/3 175/4/3
f 178/4/3 176/4/3 177/4/3
f 179/4/4 180/4/4 181/4/4
f 181/4/4 180/4/4 182/4/4
f 183/4/4 184/4/4 185/4/4
f 185/4/4 184/4/4 186/4/4
f 187/1/4 188/1/4 189/1/4
f 189/1/4 188/1/4 190/1/4
f 191/1/4 192/1/4 193/1/4
f 193/1/4 192/1/4 194/1/4
f 195/1/4 196/1/4 197/1/4
f 197/1/4 196/1/4 198/1/4
f 199/1/4 200/1/4 201/1/4
f 201/1/4 200/1/4 202/1/4
f 203/1/4 204/1/4 205/1/4
f 205/1/4 204/1/4 206/1/4
f 207/4/4 208/4/4 209/4/4
f 209/4/4 208/4/4 210/4/4
f 211/4/4 212/4/4 213/4/4
f 213/4/4 212/4/4 214/4/4
f 215/1/4 216/1/4 217/1/4
f 217/1/4 216/1/4 218/1/4
f 223/4/5 220/4/5 219/4/5
f 224/4/5 222/4/5 221/4/5
f 225/4/5 223/4/5 219/4/5
f 226/1/5 224/1/5 223/1/5
f 226/4/5 223/4/5 225/4/5
f 227/4/5 222/4/5 224/4/5
f 227/1/5 224/1/5 226/1/5
f 228/4/5 222/4/5 227/4/5
f 229/1/5 227/1/5 226/1/5
f 230/1/5 227/1/5 229/1/5
f 235/4/5 232/4/5 231/4/5
f 236/4/5 232/4/5 235/4/5
f 237/4/5 234/4/5 233/4/5
f 238/4/5 234/4/5 237/4/5
f 243/2/5 240/2/5 239/2/5
f 244/2/5 240/2/5 243/2/5
f 247/2/5 242/2/5 241/2/5
f 248/2/5 242/2/5 247/2/5
f 249/1/5 245/1/5 244/1/5
f 249/1/5 244/1/5 243/1/5
f 250/1/5 245/1/5 249/1/5
f 251/1/5 248/1/5 247/1/5
f 251/1/5 247/1/5 246/1/5
f 252/1/5 248/1/5 251/1/5
f 253/1/5 249/1/5 243/1/5
f 254/1/5 249/1/5 253/1/5
f 255/1/5 248/1/5 252/1/5
f 256/1/5 248/1/5 255/1/5
f 261/2/5 258/2/5 257/2/5
f 262/2/5 258/2/5 261/2/5
f 263/2/5 260/2/5 259/2/5
f 264/2/5 260/2/5 263/2/5
f 265/4/6 266/4/6 269/4/6
f 269/4/6 266/4/6 270/4/6
f 267/4/6 268/4/6 271/4/6
f 271/4/6 268/4/6 272/4/6
f 273/4/6 274/4/6 277/4/6
f 275/4/6 276/4/6 278/4/6
f 273/4/6 277/4/6 279/4/6
f 279/4/6 277/4/6 280/4/6
f 278/4/6 276/4/6 281/4/6
f 281/4/6 276/4/6 282/4/6
f 283/2/6 284/2/6 287/2/6
f 287/2/6 284/2/6 288/2/6
f 285/2/6 286/2/6 289/2/6
f 289/2/6 286/2/6 290/2/6
f 291/1/6 292/1/6 293/1/6
f 293/1/6 292/1/6 294/1/6
f 291/1/6 293/1/6 295/1/6
f 295/1/6 293/1/6 296/1/6
f 294/1/6 292/1/6 297/1/6
f 297/1/6 292/1/6 298/1/6
f 299/1/6 300/1/6 301/1/6
f 301/1/6 300/1/6 302/1/6
f 303/2/6 304/2/6 307/2/6
f 307/2/6 304/2/6 308/2/6
f 305/2/6 306/2/6 309/2/6
f 309/2/6 306/2/6 310/2/6
f 307/1/6 308/1/6 311/1/6
f 311/1/6 308/1/6 312/1/6
f 309/1/6 310/1/6 313/1/6
f 313/1/6 310/1/6 314/1/6
f 315/1/6 316/1/6 317/1/6
f 317/1/6 316/1/6 318/1/6
