# MagicaVoxel @ ephtracy

# material
mtllib tracked robot.mtl
usemtl palette

# normals
vn -1 0 0
vn 1 0 0
vn 0 0 1
vn 0 0 -1
vn 0 -1 0
vn 0 1 0

# texcoords
vt 0.0761719 0.5
vt 0.193359 0.5
vt 0.318359 0.5
vt 0.380859 0.5
vt 0.888672 0.5

# verts
v -10 0 4
v -10 0 -10
v -10 2 2
v -10 2 -8
v -10 6 2
v -10 6 -8
v -10 8 12
v -10 8 8
v -10 8 4
v -10 8 -10
v -10 10 12
v -10 10 10
v -10 10 8
v -10 10 6
v -10 10 -8
v -10 14 12
v -10 14 10
v -10 14 8
v -10 14 6
v -10 14 -8
v -10 16 12
v -10 16 8
v -8 2 2
v -8 2 -8
v -8 6 2
v -8 6 -8
v -6 0 -10
v -6 0 -12
v -6 8 4
v -6 8 -10
v -6 10 4
v -6 10 -8
v -6 14 2
v -6 14 -8
v -6 14 -12
v -6 24 2
v -6 24 -8
v 6 8 12
v 6 8 8
v 6 10 12
v 6 10 10
v 6 10 8
v 6 10 6
v 6 10 4
v 6 14 12
v 6 14 10
v 6 14 8
v 6 14 6
v 6 14 4
v 6 16 12
v 6 16 8
v -6 8 12
v -6 8 8
v -6 10 12
v -6 10 10
v -6 10 8
v -6 10 6
v -6 10 4
v -6 14 12
v -6 14 10
v -6 14 8
v -6 14 6
v -6 14 4
v -6 16 12
v -6 16 8
v 6 0 -10
v 6 0 -12
v 6 8 4
v 6 8 -10
v 6 10 4
v 6 10 -8
v 6 14 2
v 6 14 -8
v 6 14 -12
v 6 24 2
v 6 24 -8
v 8 2 2
v 8 2 -8
v 8 6 2
v 8 6 -8
v 10 0 4
v 10 0 -10
v 10 2 2
v 10 2 -8
v 10 6 2
v 10 6 -8
v 10 8 12
v 10 8 8
v 10 8 4
v 10 8 -10
v 10 10 12
v 10 10 10
v 10 10 8
v 10 10 6
v 10 10 -8
v 10 14 12
v 10 14 10
v 10 14 8
v 10 14 6
v 10 14 -8
v 10 16 12
v 10 16 8
v -10 8 12
v -10 10 12
v -10 14 12
v -10 16 12
v -6 8 12
v -6 10 12
v -6 14 12
v -6 16 12
v 6 8 12
v 6 10 12
v 6 14 12
v 6 16 12
v 10 8 12
v 10 10 12
v 10 14 12
v 10 16 12
v -10 10 10
v -10 14 10
v -6 10 10
v -6 14 10
v 6 10 10
v 6 14 10
v 10 10 10
v 10 14 10
v -10 0 4
v -10 8 4
v -6 0 4
v -6 8 4
v -6 10 4
v -6 14 4
v 6 0 4
v 6 8 4
v 6 10 4
v 6 14 4
v 10 0 4
v 10 8 4
v -6 14 2
v -6 24 2
v -4 16 2
v -4 18 2
v -4 20 2
v -4 22 2
v -3 16 2
v -3 18 2
v -2 16 2
v -2 18 2
v -2 20 2
v -2 22 2
v -1 16 2
v -1 18 2
v 0 16 2
v 0 18 2
v 1 16 2
v 1 18 2
v 2 16 2
v 2 18 2
v 2 20 2
v 2 22 2
v 3 16 2
v 3 18 2
v 4 16 2
v 4 18 2
v 4 20 2
v 4 22 2
v 6 14 2
v 6 24 2
v -10 2 -8
v -10 6 -8
v -8 2 -8
v -8 6 -8
v 8 2 -8
v 8 6 -8
v 10 2 -8
v 10 6 -8
v -10 8 8
v -10 10 8
v -10 14 8
v -10 16 8
v -6 8 8
v -6 10 8
v -6 14 8
v -6 16 8
v 6 8 8
v 6 10 8
v 6 14 8
v 6 16 8
v 10 8 8
v 10 10 8
v 10 14 8
v 10 16 8
v -10 2 2
v -10 6 2
v -8 2 2
v -8 6 2
v 8 2 2
v 8 6 2
v 10 2 2
v 10 6 2
v -10 10 -8
v -10 14 -8
v -6 10 -8
v -6 14 -8
v -6 24 -8
v 6 10 -8
v 6 14 -8
v 6 24 -8
v 10 10 -8
v 10 14 -8
v -10 0 -10
v -10 8 -10
v -6 0 -10
v -6 8 -10
v 6 0 -10
v 6 8 -10
v 10 0 -10
v 10 8 -10
v -6 0 -12
v -6 14 -12
v 6 0 -12
v 6 14 -12
v -10 0 4
v -6 0 4
v 6 0 4
v 10 0 4
v -10 0 -10
v -6 0 -10
v 6 0 -10
v 10 0 -10
v -6 0 -12
v 6 0 -12
v -10 6 2
v -8 6 2
v 8 6 2
v 10 6 2
v -10 6 -8
v -8 6 -8
v 8 6 -8
v 10 6 -8
v -10 8 12
v -6 8 12
v 6 8 12
v 10 8 12
v -10 8 8
v -6 8 8
v 6 8 8
v 10 8 8
v -10 10 8
v -6 10 8
v 6 10 8
v 10 10 8
v -10 10 6
v -6 10 6
v 6 10 6
v 10 10 6
v -6 10 4
v 6 10 4
v -10 10 -8
v -6 10 -8
v 6 10 -8
v 10 10 -8
v -10 14 12
v -6 14 12
v 6 14 12
v 10 14 12
v -10 14 10
v -6 14 10
v 6 14 10
v 10 14 10
v -10 2 2
v -8 2 2
v 8 2 2
v 10 2 2
v -10 2 -8
v -8 2 -8
v 8 2 -8
v 10 2 -8
v -10 8 4
v -6 8 4
v 6 8 4
v 10 8 4
v -10 8 -10
v -6 8 -10
v 6 8 -10
v 10 8 -10
v -10 10 12
v -6 10 12
v 6 10 12
v 10 10 12
v -10 10 10
v -6 10 10
v 6 10 10
v 10 10 10
v -10 14 8
v -6 14 8
v 6 14 8
v 10 14 8
v -10 14 6
v -6 14 6
v 6 14 6
v 10 14 6
v -6 14 4
v 6 14 4
v -6 14 2
v 6 14 2
v -10 14 -8
v -6 14 -8
v 6 14 -8
v 10 14 -8
v -6 14 -12
v 6 14 -12
v -10 16 12
v -6 16 12
v 6 16 12
v 10 16 12
v -10 16 8
v -6 16 8
v 6 16 8
v 10 16 8
v -6 24 2
v 6 24 2
v -6 24 -8
v 6 24 -8

# faces
f 3/4/1 2/4/1 1/4/1
f 4/4/1 2/4/1 3/4/1
f 5/4/1 3/4/1 1/4/1
f 6/4/1 2/4/1 4/4/1
f 9/4/1 5/4/1 1/4/1
f 9/4/1 6/4/1 5/4/1
f 10/4/1 2/4/1 6/4/1
f 10/4/1 6/4/1 9/4/1
f 11/2/1 8/2/1 7/2/1
f 12/2/1 8/2/1 11/2/1
f 13/2/1 8/2/1 12/2/1
f 17/2/1 13/2/1 12/2/1
f 17/2/1 14/2/1 13/2/1
f 18/2/1 14/2/1 17/2/1
f 19/1/1 15/1/1 14/1/1
f 19/2/1 14/2/1 18/2/1
f 20/1/1 15/1/1 19/1/1
f 21/2/1 18/2/1 17/2/1
f 21/2/1 17/2/1 16/2/1
f 22/2/1 18/2/1 21/2/1
f 25/3/1 24/3/1 23/3/1
f 26/3/1 24/3/1 25/3/1
f 30/1/1 28/1/1 27/1/1
f 31/1/1 30/1/1 29/1/1
f 32/1/1 30/1/1 31/1/1
f 34/1/1 30/1/1 32/1/1
f 35/1/1 28/1/1 30/1/1
f 35/1/1 30/1/1 34/1/1
f 36/1/1 34/1/1 33/1/1
f 37/1/1 34/1/1 36/1/1
f 40/2/1 39/2/1 38/2/1
f 41/2/1 39/2/1 40/2/1
f 42/2/1 39/2/1 41/2/1
f 46/2/1 42/2/1 41/2/1
f 46/2/1 43/2/1 42/2/1
f 47/2/1 43/2/1 46/2/1
f 48/1/1 44/1/1 43/1/1
f 48/2/1 43/2/1 47/2/1
f 49/1/1 44/1/1 48/1/1
f 50/2/1 47/2/1 46/2/1
f 50/2/1 46/2/1 45/2/1
f 51/2/1 47/2/1 50/2/1
f 52/2/2 53/2/2 54/2/2
f 54/2/2 53/2/2 55/2/2
f 55/2/2 53/2/2 56/2/2
f 55/2/2 56/2/2 60/2/2
f 56/2/2 57/2/2 60/2/2
f 60/2/2 57/2/2 61/2/2
f 57/1/2 58/1/2 62/1/2
f 61/2/2 57/2/2 62/2/2
f 62/1/2 58/1/2 63/1/2
f 60/2/2 61/2/2 64/2/2
f 59/2/2 60/2/2 64/2/2
f 64/2/2 61/2/2 65/2/2
f 66/1/2 67/1/2 69/1/2
f 68/1/2 69/1/2 70/1/2
f 70/1/2 69/1/2 71/1/2
f 71/1/2 69/1/2 73/1/2
f 69/1/2 67/1/2 74/1/2
f 73/1/2 69/1/2 74/1/2
f 72/1/2 73/1/2 75/1/2
f 75/1/2 73/1/2 76/1/2
f 77/3/2 78/3/2 79/3/2
f 79/3/2 78/3/2 80/3/2
f 81/4/2 82/4/2 83/4/2
f 83/4/2 82/4/2 84/4/2
f 81/4/2 83/4/2 85/4/2
f 84/4/2 82/4/2 86/4/2
f 81/4/2 85/4/2 89/4/2
f 85/4/2 86/4/2 89/4/2
f 86/4/2 82/4/2 90/4/2
f 89/4/2 86/4/2 90/4/2
f 87/2/2 88/2/2 91/2/2
f 91/2/2 88/2/2 92/2/2
f 92/2/2 88/2/2 93/2/2
f 92/2/2 93/2/2 97/2/2
f 93/2/2 94/2/2 97/2/2
f 97/2/2 94/2/2 98/2/2
f 94/1/2 95/1/2 99/1/2
f 98/2/2 94/2/2 99/2/2
f 99/1/2 95/1/2 100/1/2
f 97/2/2 98/2/2 101/2/2
f 96/2/2 97/2/2 101/2/2
f 101/2/2 98/2/2 102/2/2
f 107/2/3 104/2/3 103/2/3
f 108/2/3 104/2/3 107/2/3
f 109/2/3 106/2/3 105/2/3
f 110/2/3 106/2/3 109/2/3
f 115/2/3 112/2/3 111/2/3
f 116/2/3 112/2/3 115/2/3
f 117/2/3 114/2/3 113/2/3
f 118/2/3 114/2/3 117/2/3
f 121/2/3 120/2/3 119/2/3
f 122/2/3 120/2/3 121/2/3
f 125/2/3 124/2/3 123/2/3
f 126/2/3 124/2/3 125/2/3
f 129/4/3 128/4/3 127/4/3
f 130/4/3 128/4/3 129/4/3
f 133/1/3 130/1/3 129/1/3
f 133/1/3 132/1/3 131/1/3
f 133/1/3 131/1/3 130/1/3
f 134/1/3 132/1/3 133/1/3
f 135/1/3 132/1/3 134/1/3
f 136/1/3 132/1/3 135/1/3
f 137/4/3 134/4/3 133/4/3
f 138/4/3 134/4/3 137/4/3
f 141/1/3 140/1/3 139/1/3
f 142/1/3 140/1/3 141/1/3
f 143/1/3 140/1/3 142/1/3
f 144/1/3 140/1/3 143/1/3
f 145/1/3 141/1/3 139/1/3
f 145/4/3 142/4/3 141/4/3
f 146/1/3 143/1/3 142/1/3
f 146/4/3 142/4/3 145/4/3
f 147/1/3 145/1/3 139/1/3
f 147/5/3 146/5/3 145/5/3
f 148/1/3 143/1/3 146/1/3
f 148/5/3 146/5/3 147/5/3
f 149/4/3 144/4/3 143/4/3
f 149/1/3 143/1/3 148/1/3
f 150/1/3 140/1/3 144/1/3
f 150/4/3 144/4/3 149/4/3
f 151/4/3 148/4/3 147/4/3
f 151/1/3 147/1/3 139/1/3
f 152/1/3 149/1/3 148/1/3
f 152/4/3 148/4/3 151/4/3
f 152/1/3 150/1/3 149/1/3
f 153/1/3 151/1/3 139/1/3
f 153/5/3 152/5/3 151/5/3
f 154/1/3 150/1/3 152/1/3
f 154/5/3 152/5/3 153/5/3
f 155/1/3 153/1/3 139/1/3
f 155/4/3 154/4/3 153/4/3
f 156/1/3 150/1/3 154/1/3
f 156/4/3 154/4/3 155/4/3
f 157/1/3 155/1/3 139/1/3
f 157/5/3 156/5/3 155/5/3
f 158/1/3 150/1/3 156/1/3
f 158/5/3 156/5/3 157/5/3
f 159/1/3 150/1/3 158/1/3
f 160/1/3 140/1/3 150/1/3
f 160/1/3 150/1/3 159/1/3
f 161/1/3 157/1/3 139/1/3
f 161/4/3 158/4/3 157/4/3
f 162/1/3 159/1/3 158/1/3
f 162/4/3 158/4/3 161/4/3
f 163/1/3 161/1/3 139/1/3
f 163/5/3 162/5/3 161/5/3
f 164/1/3 159/1/3 162/1/3
f 164/5/3 162/5/3 163/5/3
f 165/4/3 160/4/3 159/4/3
f 165/1/3 159/1/3 164/1/3
f 166/1/3 140/1/3 160/1/3
f 166/4/3 160/4/3 165/4/3
f 167/1/3 165/1/3 164/1/3
f 167/1/3 163/1/3 139/1/3
f 167/1/3 166/1/3 165/1/3
f 167/1/3 164/1/3 163/1/3
f 168/1/3 140/1/3 166/1/3
f 168/1/3 166/1/3 167/1/3
f 171/4/3 170/4/3 169/4/3
f 172/4/3 170/4/3 171/4/3
f 175/4/3 174/4/3 173/4/3
f 176/4/3 174/4/3 175/4/3
f 177/2/4 178/2/4 181/2/4
f 181/2/4 178/2/4 182/2/4
f 179/2/4 180/2/4 183/2/4
f 183/2/4 180/2/4 184/2/4
f 185/2/4 186/2/4 189/2/4
f 189/2/4 186/2/4 190/2/4
f 187/2/4 188/2/4 191/2/4
f 191/2/4 188/2/4 192/2/4
f 193/4/4 194/4/4 195/4/4
f 195/4/4 194/4/4 196/4/4
f 197/4/4 198/4/4 199/4/4
f 199/4/4 198/4/4 200/4/4
f 201/1/4 202/1/4 203/1/4
f 203/1/4 202/1/4 204/1/4
f 204/1/4 205/1/4 207/1/4
f 207/1/4 205/1/4 208/1/4
f 206/1/4 207/1/4 209/1/4
f 209/1/4 207/1/4 210/1/4
f 211/4/4 212/4/4 213/4/4
f 213/4/4 212/4/4 214/4/4
f 215/4/4 216/4/4 217/4/4
f 217/4/4 216/4/4 218/4/4
f 219/1/4 220/1/4 221/1/4
f 221/1/4 220/1/4 222/1/4
f 227/4/5 224/4/5 223/4/5
f 228/1/5 225/1/5 224/1/5
f 228/4/5 224/4/5 227/4/5
f 229/4/5 226/4/5 225/4/5
f 229/1/5 225/1/5 228/1/5
f 230/4/5 226/4/5 229/4/5
f 231/1/5 229/1/5 228/1/5
f 232/1/5 229/1/5 231/1/5
f 237/4/5 234/4/5 233/4/5
f 238/4/5 234/4/5 237/4/5
f 239/4/5 236/4/5 235/4/5
f 240/4/5 236/4/5 239/4/5
f 245/2/5 242/2/5 241/2/5
f 246/2/5 242/2/5 245/2/5
f 247/2/5 244/2/5 243/2/5
f 248/2/5 244/2/5 247/2/5
f 253/2/5 250/2/5 249/2/5
f 254/2/5 250/2/5 253/2/5
f 255/2/5 252/2/5 251/2/5
f 256/2/5 252/2/5 255/2/5
f 257/1/5 254/1/5 253/1/5
f 258/1/5 256/1/5 255/1/5
f 259/1/5 257/1/5 253/1/5
f 260/1/5 257/1/5 259/1/5
f 261/1/5 256/1/5 258/1/5
f 262/1/5 256/1/5 261/1/5
f 267/2/5 264/2/5 263/2/5
f 268/2/5 264/2/5 267/2/5
f 269/2/5 266/2/5 265/2/5
f 270/2/5 266/2/5 269/2/5
f 271/4/6 272/4/6 275/4/6
f 275/4/6 272/4/6 276/4/6
f 273/4/6 274/4/6 277/4/6
f 277/4/6 274/4/6 278/4/6
f 279/4/6 280/4/6 283/4/6
f 283/4/6 280/4/6 284/4/6
f 281/4/6 282/4/6 285/4/6
f 285/4/6 282/4/6 286/4/6
f 287/2/6 288/2/6 291/2/6
f 291/2/6 288/2/6 292/2/6
f 289/2/6 290/2/6 293/2/6
f 293/2/6 290/2/6 294/2/6
f 295/2/6 296/2/6 299/2/6
f 299/2/6 296/2/6 300/2/6
f 297/2/6 298/2/6 301/2/6
f 301/2/6 298/2/6 302/2/6
f 299/1/6 300/1/6 303/1/6
f 301/1/6 302/1/6 304/1/6
f 299/1/6 303/1/6 305/1/6
f 303/1/6 304/1/6 305/1/6
f 304/1/6 302/1/6 306/1/6
f 305/1/6 304/1/6 306/1/6
f 299/1/6 305/1/6 307/1/6
f 307/1/6 305/1/6 308/1/6
f 306/1/6 302/1/6 309/1/6
f 309/1/6 302/1/6 310/1/6
f 308/1/6 309/1/6 311/1/6
f 311/1/6 309/1/6 312/1/6
f 313/2/6 314/2/6 317/2/6
f 317/2/6 314/2/6 318/2/6
f 315/2/6 316/2/6 319/2/6
f 319/2/6 316/2/6 320/2/6
f 321/1/6 322/1/6 323/1/6
f 323/1/6 322/1/6 324/1/6
