# MagicaVoxel @ ephtracy

# material
mtllib razorback.mtl
usemtl palette

# normals
vn -1 0 0
vn 1 0 0
vn 0 -1 0
vn 0 1 0
vn 0 0 -1
vn 0 0 1

# texcoords
vt 0.0761719 0.5
vt 0.255859 0.5
vt 0.318359 0.5
vt 0.380859 0.5

# verts
v 1 12 48
v 1 24 48
v 1 36 48
v 1 48 48
v 1 16 52
v 1 20 52
v 1 40 52
v 1 44 52
v 1 16 56
v 1 20 56
v 1 40 56
v 1 44 56
v 1 12 60
v 1 24 60
v 1 36 60
v 1 48 60
v 2 16 52
v 2 20 52
v 2 40 52
v 2 44 52
v 2 16 56
v 2 20 56
v 2 40 56
v 2 44 56
v 8 24 54
v 8 36 54
v 8 14 60
v 8 24 60
v 8 36 60
v 8 46 60
v 8 14 62
v 8 46 62
v 12 42 50
v 12 52 50
v 12 42 54
v 12 46 54
v 12 38 62
v 12 46 62
v 12 38 64
v 12 52 64
v 14 24 62
v 14 32 62
v 14 24 78
v 14 32 78
v 22 42 50
v 22 48 50
v 22 14 54
v 22 42 54
v 22 14 62
v 22 24 62
v 22 32 62
v 22 38 62
v 22 38 64
v 22 48 64
v 22 24 78
v 22 32 78
v 32 12 48
v 32 24 48
v 32 36 48
v 32 48 48
v 32 14 54
v 32 24 54
v 32 36 54
v 32 46 54
v 32 12 60
v 32 14 60
v 32 46 60
v 32 48 60
v 8 12 48
v 8 24 48
v 8 36 48
v 8 48 48
v 8 14 54
v 8 24 54
v 8 36 54
v 8 46 54
v 8 12 60
v 8 14 60
v 8 46 60
v 8 48 60
v 18 42 50
v 18 48 50
v 18 14 54
v 18 42 54
v 18 14 62
v 18 24 62
v 18 32 62
v 18 38 62
v 18 38 64
v 18 48 64
v 18 24 78
v 18 32 78
v 26 24 62
v 26 32 62
v 26 24 78
v 26 32 78
v 28 42 50
v 28 52 50
v 28 42 54
v 28 46 54
v 28 38 62
v 28 46 62
v 28 38 64
v 28 52 64
v 32 24 54
v 32 36 54
v 32 14 60
v 32 24 60
v 32 36 60
v 32 46 60
v 32 14 62
v 32 46 62
v 38 16 52
v 38 20 52
v 38 40 52
v 38 44 52
v 38 16 56
v 38 20 56
v 38 40 56
v 38 44 56
v 39 12 48
v 39 24 48
v 39 36 48
v 39 48 48
v 39 16 52
v 39 20 52
v 39 40 52
v 39 44 52
v 39 16 56
v 39 20 56
v 39 40 56
v 39 44 56
v 39 12 60
v 39 24 60
v 39 36 60
v 39 48 60
v 1 12 48
v 1 12 60
v 8 12 48
v 8 12 60
v 32 12 48
v 32 12 60
v 39 12 48
v 39 12 60
v 8 14 54
v 8 14 60
v 8 14 62
v 18 14 54
v 18 14 62
v 22 14 54
v 22 14 62
v 32 14 54
v 32 14 60
v 32 14 62
v 1 20 52
v 1 20 56
v 2 20 52
v 2 20 56
v 38 20 52
v 38 20 56
v 39 20 52
v 39 20 56
v 14 24 62
v 14 24 78
v 18 24 62
v 18 24 78
v 22 24 62
v 22 24 78
v 26 24 62
v 26 24 78
v 1 36 48
v 1 36 60
v 8 36 48
v 8 36 54
v 8 36 60
v 32 36 48
v 32 36 54
v 32 36 60
v 39 36 48
v 39 36 60
v 12 38 62
v 12 38 64
v 18 38 62
v 18 38 64
v 22 38 62
v 22 38 64
v 28 38 62
v 28 38 64
v 12 42 50
v 12 42 54
v 18 42 50
v 18 42 54
v 22 42 50
v 22 42 54
v 28 42 50
v 28 42 54
v 1 44 52
v 1 44 56
v 2 44 52
v 2 44 56
v 38 44 52
v 38 44 56
v 39 44 52
v 39 44 56
v 18 48 50
v 18 48 64
v 22 48 50
v 22 48 64
v 1 16 52
v 1 16 56
v 2 16 52
v 2 16 56
v 38 16 52
v 38 16 56
v 39 16 52
v 39 16 56
v 1 24 48
v 1 24 60
v 8 24 48
v 8 24 54
v 8 24 60
v 32 24 48
v 32 24 54
v 32 24 60
v 39 24 48
v 39 24 60
v 14 32 62
v 14 32 78
v 18 32 62
v 18 32 78
v 22 32 62
v 22 32 78
v 26 32 62
v 26 32 78
v 1 40 52
v 1 40 56
v 2 40 52
v 2 40 56
v 38 40 52
v 38 40 56
v 39 40 52
v 39 40 56
v 8 46 54
v 8 46 60
v 8 46 62
v 12 46 54
v 12 46 62
v 28 46 54
v 28 46 62
v 32 46 54
v 32 46 60
v 32 46 62
v 1 48 48
v 1 48 60
v 8 48 48
v 8 48 60
v 32 48 48
v 32 48 60
v 39 48 48
v 39 48 60
v 12 52 50
v 12 52 64
v 15 52 52
v 15 52 55
v 15 52 58
v 15 52 61
v 17 52 52
v 17 52 55
v 18 52 58
v 18 52 61
v 19 52 52
v 19 52 55
v 21 52 52
v 21 52 55
v 22 52 58
v 22 52 61
v 23 52 52
v 23 52 55
v 25 52 52
v 25 52 55
v 25 52 58
v 25 52 61
v 28 52 50
v 28 52 64
v 1 12 48
v 8 12 48
v 32 12 48
v 39 12 48
v 1 24 48
v 8 24 48
v 32 24 48
v 39 24 48
v 1 36 48
v 8 36 48
v 32 36 48
v 39 36 48
v 1 48 48
v 8 48 48
v 32 48 48
v 39 48 48
v 12 42 50
v 18 42 50
v 22 42 50
v 28 42 50
v 18 48 50
v 22 48 50
v 12 52 50
v 28 52 50
v 8 14 54
v 18 14 54
v 22 14 54
v 32 14 54
v 8 24 54
v 32 24 54
v 8 36 54
v 32 36 54
v 12 42 54
v 18 42 54
v 22 42 54
v 28 42 54
v 8 46 54
v 12 46 54
v 28 46 54
v 32 46 54
v 1 16 56
v 2 16 56
v 38 16 56
v 39 16 56
v 1 20 56
v 2 20 56
v 38 20 56
v 39 20 56
v 1 40 56
v 2 40 56
v 38 40 56
v 39 40 56
v 1 44 56
v 2 44 56
v 38 44 56
v 39 44 56
v 1 16 52
v 2 16 52
v 38 16 52
v 39 16 52
v 1 20 52
v 2 20 52
v 38 20 52
v 39 20 52
v 1 40 52
v 2 40 52
v 38 40 52
v 39 40 52
v 1 44 52
v 2 44 52
v 38 44 52
v 39 44 52
v 1 12 60
v 8 12 60
v 32 12 60
v 39 12 60
v 8 14 60
v 32 14 60
v 1 24 60
v 8 24 60
v 32 24 60
v 39 24 60
v 1 36 60
v 8 36 60
v 32 36 60
v 39 36 60
v 8 46 60
v 32 46 60
v 1 48 60
v 8 48 60
v 32 48 60
v 39 48 60
v 8 14 62
v 18 14 62
v 22 14 62
v 32 14 62
v 14 24 62
v 18 24 62
v 22 24 62
v 26 24 62
v 14 32 62
v 18 32 62
v 22 32 62
v 26 32 62
v 12 38 62
v 18 38 62
v 22 38 62
v 28 38 62
v 8 46 62
v 12 46 62
v 28 46 62
v 32 46 62
v 12 38 64
v 18 38 64
v 22 38 64
v 28 38 64
v 18 48 64
v 22 48 64
v 12 52 64
v 28 52 64
v 14 24 78
v 18 24 78
v 22 24 78
v 26 24 78
v 14 32 78
v 18 32 78
v 22 32 78
v 26 32 78

# faces
f 5/4/1 2/4/1 1/4/1
f 6/4/1 2/4/1 5/4/1
f 7/4/1 4/4/1 3/4/1
f 8/4/1 4/4/1 7/4/1
f 9/4/1 5/4/1 1/4/1
f 10/4/1 2/4/1 6/4/1
f 11/4/1 7/4/1 3/4/1
f 12/4/1 4/4/1 8/4/1
f 13/4/1 9/4/1 1/4/1
f 13/4/1 10/4/1 9/4/1
f 14/4/1 2/4/1 10/4/1
f 14/4/1 10/4/1 13/4/1
f 15/4/1 12/4/1 11/4/1
f 15/4/1 11/4/1 3/4/1
f 16/4/1 4/4/1 12/4/1
f 16/4/1 12/4/1 15/4/1
f 21/3/1 18/3/1 17/3/1
f 22/3/1 18/3/1 21/3/1
f 23/3/1 20/3/1 19/3/1
f 24/3/1 20/3/1 23/3/1
f 28/1/1 26/1/1 25/1/1
f 29/1/1 26/1/1 28/1/1
f 31/1/1 28/1/1 27/1/1
f 31/1/1 30/1/1 29/1/1
f 31/1/1 29/1/1 28/1/1
f 32/1/1 30/1/1 31/1/1
f 35/1/1 34/1/1 33/1/1
f 36/1/1 34/1/1 35/1/1
f 38/1/1 34/1/1 36/1/1
f 39/1/1 38/1/1 37/1/1
f 40/1/1 34/1/1 38/1/1
f 40/1/1 38/1/1 39/1/1
f 43/1/1 42/1/1 41/1/1
f 44/1/1 42/1/1 43/1/1
f 48/1/1 46/1/1 45/1/1
f 49/1/1 48/1/1 47/1/1
f 50/1/1 48/1/1 49/1/1
f 51/1/1 48/1/1 50/1/1
f 52/1/1 48/1/1 51/1/1
f 53/1/1 48/1/1 52/1/1
f 54/1/1 46/1/1 48/1/1
f 54/1/1 48/1/1 53/1/1
f 55/1/1 51/1/1 50/1/1
f 56/1/1 51/1/1 55/1/1
f 61/4/1 58/4/1 57/4/1
f 62/4/1 58/4/1 61/4/1
f 63/4/1 60/4/1 59/4/1
f 64/4/1 60/4/1 63/4/1
f 65/4/1 61/4/1 57/4/1
f 66/4/1 61/4/1 65/4/1
f 67/4/1 60/4/1 64/4/1
f 68/4/1 60/4/1 67/4/1
f 69/4/2 70/4/2 73/4/2
f 73/4/2 70/4/2 74/4/2
f 71/4/2 72/4/2 75/4/2
f 75/4/2 72/4/2 76/4/2
f 69/4/2 73/4/2 77/4/2
f 77/4/2 73/4/2 78/4/2
f 76/4/2 72/4/2 79/4/2
f 79/4/2 72/4/2 80/4/2
f 81/1/2 82/1/2 84/1/2
f 83/1/2 84/1/2 85/1/2
f 85/1/2 84/1/2 86/1/2
f 86/1/2 84/1/2 87/1/2
f 87/1/2 84/1/2 88/1/2
f 88/1/2 84/1/2 89/1/2
f 84/1/2 82/1/2 90/1/2
f 89/1/2 84/1/2 90/1/2
f 86/1/2 87/1/2 91/1/2
f 91/1/2 87/1/2 92/1/2
f 93/1/2 94/1/2 95/1/2
f 95/1/2 94/1/2 96/1/2
f 97/1/2 98/1/2 99/1/2
f 99/1/2 98/1/2 100/1/2
f 100/1/2 98/1/2 102/1/2
f 101/1/2 102/1/2 103/1/2
f 102/1/2 98/1/2 104/1/2
f 103/1/2 102/1/2 104/1/2
f 105/1/2 106/1/2 108/1/2
f 108/1/2 106/1/2 109/1/2
f 107/1/2 108/1/2 111/1/2
f 109/1/2 110/1/2 111/1/2
f 108/1/2 109/1/2 111/1/2
f 111/1/2 110/1/2 112/1/2
f 113/3/2 114/3/2 117/3/2
f 117/3/2 114/3/2 118/3/2
f 115/3/2 116/3/2 119/3/2
f 119/3/2 116/3/2 120/3/2
f 121/4/2 122/4/2 125/4/2
f 125/4/2 122/4/2 126/4/2
f 123/4/2 124/4/2 127/4/2
f 127/4/2 124/4/2 128/4/2
f 121/4/2 125/4/2 129/4/2
f 126/4/2 122/4/2 130/4/2
f 123/4/2 127/4/2 131/4/2
f 128/4/2 124/4/2 132/4/2
f 121/4/2 129/4/2 133/4/2
f 129/4/2 130/4/2 133/4/2
f 130/4/2 122/4/2 134/4/2
f 133/4/2 130/4/2 134/4/2
f 131/4/2 132/4/2 135/4/2
f 123/4/2 131/4/2 135/4/2
f 132/4/2 124/4/2 136/4/2
f 135/4/2 132/4/2 136/4/2
f 139/4/3 138/4/3 137/4/3
f 140/4/3 138/4/3 139/4/3
f 143/4/3 142/4/3 141/4/3
f 144/4/3 142/4/3 143/4/3
f 148/1/3 146/1/3 145/1/3
f 148/1/3 147/1/3 146/1/3
f 149/1/3 147/1/3 148/1/3
f 152/1/3 151/1/3 150/1/3
f 153/1/3 151/1/3 152/1/3
f 154/1/3 151/1/3 153/1/3
f 157/4/3 156/4/3 155/4/3
f 158/4/3 156/4/3 157/4/3
f 161/4/3 160/4/3 159/4/3
f 162/4/3 160/4/3 161/4/3
f 165/1/3 164/1/3 163/1/3
f 166/1/3 164/1/3 165/1/3
f 169/1/3 168/1/3 167/1/3
f 170/1/3 168/1/3 169/1/3
f 173/4/3 172/4/3 171/4/3
f 174/4/3 172/4/3 173/4/3
f 175/4/3 172/4/3 174/4/3
f 179/4/3 177/4/3 176/4/3
f 179/4/3 178/4/3 177/4/3
f 180/4/3 178/4/3 179/4/3
f 183/1/3 182/1/3 181/1/3
f 184/1/3 182/1/3 183/1/3
f 187/1/3 186/1/3 185/1/3
f 188/1/3 186/1/3 187/1/3
f 191/1/3 190/1/3 189/1/3
f 192/1/3 190/1/3 191/1/3
f 195/1/3 194/1/3 193/1/3
f 196/1/3 194/1/3 195/1/3
f 199/4/3 198/4/3 197/4/3
f 200/4/3 198/4/3 199/4/3
f 203/4/3 202/4/3 201/4/3
f 204/4/3 202/4/3 203/4/3
f 207/1/3 206/1/3 205/1/3
f 208/1/3 206/1/3 207/1/3
f 209/4/4 210/4/4 211/4/4
f 211/4/4 210/4/4 212/4/4
f 213/4/4 214/4/4 215/4/4
f 215/4/4 214/4/4 216/4/4
f 217/4/4 218/4/4 219/4/4
f 219/4/4 218/4/4 220/4/4
f 220/4/4 218/4/4 221/4/4
f 222/4/4 223/4/4 225/4/4
f 223/4/4 224/4/4 225/4/4
f 225/4/4 224/4/4 226/4/4
f 227/1/4 228/1/4 229/1/4
f 229/1/4 228/1/4 230/1/4
f 231/1/4 232/1/4 233/1/4
f 233/1/4 232/1/4 234/1/4
f 235/4/4 236/4/4 237/4/4
f 237/4/4 236/4/4 238/4/4
f 239/4/4 240/4/4 241/4/4
f 241/4/4 240/4/4 242/4/4
f 243/1/4 244/1/4 246/1/4
f 244/1/4 245/1/4 246/1/4
f 246/1/4 245/1/4 247/1/4
f 248/1/4 249/1/4 250/1/4
f 250/1/4 249/1/4 251/1/4
f 251/1/4 249/1/4 252/1/4
f 253/4/4 254/4/4 255/4/4
f 255/4/4 254/4/4 256/4/4
f 257/4/4 258/4/4 259/4/4
f 259/4/4 258/4/4 260/4/4
f 261/1/4 262/1/4 263/1/4
f 263/1/4 262/1/4 264/1/4
f 264/1/4 262/1/4 265/1/4
f 265/1/4 262/1/4 266/1/4
f 261/1/4 263/1/4 267/1/4
f 263/3/4 264/3/4 267/3/4
f 264/1/4 265/1/4 268/1/4
f 267/3/4 264/3/4 268/3/4
f 265/3/4 266/3/4 269/3/4
f 268/1/4 265/1/4 269/1/4
f 266/1/4 262/1/4 270/1/4
f 269/3/4 266/3/4 270/3/4
f 267/2/4 268/2/4 271/2/4
f 261/1/4 267/1/4 271/1/4
f 268/1/4 269/1/4 272/1/4
f 271/2/4 268/2/4 272/2/4
f 269/1/4 270/1/4 272/1/4
f 261/1/4 271/1/4 273/1/4
f 271/3/4 272/3/4 273/3/4
f 272/1/4 270/1/4 274/1/4
f 273/3/4 272/3/4 274/3/4
f 274/1/4 270/1/4 275/1/4
f 270/1/4 262/1/4 276/1/4
f 275/1/4 270/1/4 276/1/4
f 261/1/4 273/1/4 277/1/4
f 273/2/4 274/2/4 277/2/4
f 274/1/4 275/1/4 278/1/4
f 277/2/4 274/2/4 278/2/4
f 261/1/4 277/1/4 279/1/4
f 277/3/4 278/3/4 279/3/4
f 278/1/4 275/1/4 280/1/4
f 279/3/4 278/3/4 280/3/4
f 275/3/4 276/3/4 281/3/4
f 280/1/4 275/1/4 281/1/4
f 276/1/4 262/1/4 282/1/4
f 281/3/4 276/3/4 282/3/4
f 280/1/4 281/1/4 283/1/4
f 261/1/4 279/1/4 283/1/4
f 281/1/4 282/1/4 283/1/4
f 279/1/4 280/1/4 283/1/4
f 282/1/4 262/1/4 284/1/4
f 283/1/4 282/1/4 284/1/4
f 289/4/5 286/4/5 285/4/5
f 290/4/5 286/4/5 289/4/5
f 291/4/5 288/4/5 287/4/5
f 292/4/5 288/4/5 291/4/5
f 297/4/5 294/4/5 293/4/5
f 298/4/5 294/4/5 297/4/5
f 299/4/5 296/4/5 295/4/5
f 300/4/5 296/4/5 299/4/5
f 305/1/5 302/1/5 301/1/5
f 306/1/5 304/1/5 303/1/5
f 307/1/5 305/1/5 301/1/5
f 307/1/5 306/1/5 305/1/5
f 308/1/5 304/1/5 306/1/5
f 308/1/5 306/1/5 307/1/5
f 313/1/5 310/1/5 309/1/5
f 314/1/5 312/1/5 311/1/5
f 315/1/5 310/1/5 313/1/5
f 316/1/5 314/1/5 311/1/5
f 317/1/5 310/1/5 315/1/5
f 318/1/5 310/1/5 317/1/5
f 319/1/5 316/1/5 311/1/5
f 320/1/5 316/1/5 319/1/5
f 321/1/5 317/1/5 315/1/5
f 322/1/5 317/1/5 321/1/5
f 323/1/5 316/1/5 320/1/5
f 324/1/5 316/1/5 323/1/5
f 329/4/5 326/4/5 325/4/5
f 330/4/5 326/4/5 329/4/5
f 331/4/5 328/4/5 327/4/5
f 332/4/5 328/4/5 331/4/5
f 337/4/5 334/4/5 333/4/5
f 338/4/5 334/4/5 337/4/5
f 339/4/5 336/4/5 335/4/5
f 340/4/5 336/4/5 339/4/5
f 341/4/6 342/4/6 345/4/6
f 345/4/6 342/4/6 346/4/6
f 343/4/6 344/4/6 347/4/6
f 347/4/6 344/4/6 348/4/6
f 349/4/6 350/4/6 353/4/6
f 353/4/6 350/4/6 354/4/6
f 351/4/6 352/4/6 355/4/6
f 355/4/6 352/4/6 356/4/6
f 357/4/6 358/4/6 361/4/6
f 359/4/6 360/4/6 362/4/6
f 357/4/6 361/4/6 363/4/6
f 363/4/6 361/4/6 364/4/6
f 362/4/6 360/4/6 365/4/6
f 365/4/6 360/4/6 366/4/6
f 367/4/6 368/4/6 371/4/6
f 369/4/6 370/4/6 372/4/6
f 367/4/6 371/4/6 373/4/6
f 373/4/6 371/4/6 374/4/6
f 372/4/6 370/4/6 375/4/6
f 375/4/6 370/4/6 376/4/6
f 377/1/6 378/1/6 381/1/6
f 381/1/6 378/1/6 382/1/6
f 379/1/6 380/1/6 383/1/6
f 383/1/6 380/1/6 384/1/6
f 377/1/6 381/1/6 385/1/6
f 384/1/6 380/1/6 388/1/6
f 385/1/6 386/1/6 389/1/6
f 377/1/6 385/1/6 389/1/6
f 389/1/6 386/1/6 390/1/6
f 387/1/6 388/1/6 391/1/6
f 388/1/6 380/1/6 392/1/6
f 391/1/6 388/1/6 392/1/6
f 377/1/6 389/1/6 393/1/6
f 393/1/6 389/1/6 394/1/6
f 392/1/6 380/1/6 395/1/6
f 395/1/6 380/1/6 396/1/6
f 397/1/6 398/1/6 401/1/6
f 399/1/6 400/1/6 402/1/6
f 397/1/6 401/1/6 403/1/6
f 401/1/6 402/1/6 403/1/6
f 402/1/6 400/1/6 404/1/6
f 403/1/6 402/1/6 404/1/6
f 405/1/6 406/1/6 409/1/6
f 409/1/6 406/1/6 410/1/6
f 407/1/6 408/1/6 411/1/6
f 411/1/6 408/1/6 412/1/6
