# MagicaVoxel @ ephtracy

# material
mtllib tile-shooter.mtl
usemtl palette

# normals
vn -1 0 0
vn 1 0 0
vn 0 -1 0
vn 0 1 0
vn 0 0 -1
vn 0 0 1

# texcoords
vt 0.970703 0.5
vt 0.974609 0.5
vt 0.978516 0.5
vt 0.982422 0.5

# verts
v 0 4 16
v 0 20 16
v 0 4 32
v 0 20 32
v 3 3 19
v 3 4 19
v 3 3 29
v 3 4 29
v 4 0 20
v 4 3 20
v 4 0 28
v 4 3 28
v 10 0 22
v 10 7 22
v 10 0 26
v 10 7 26
v 6 0 22
v 6 7 22
v 6 0 26
v 6 7 26
v 12 0 20
v 12 3 20
v 12 0 28
v 12 3 28
v 13 3 19
v 13 4 19
v 13 3 29
v 13 4 29
v 16 4 16
v 16 20 16
v 16 4 32
v 16 20 32
v 4 0 20
v 4 0 28
v 6 0 22
v 6 0 26
v 10 0 22
v 10 0 26
v 12 0 20
v 12 0 28
v 3 3 19
v 3 3 29
v 4 3 20
v 4 3 28
v 12 3 20
v 12 3 28
v 13 3 19
v 13 3 29
v 0 4 16
v 0 4 32
v 3 4 19
v 3 4 29
v 13 4 19
v 13 4 29
v 16 4 16
v 16 4 32
v 6 7 22
v 6 7 26
v 10 7 22
v 10 7 26
v 0 20 16
v 0 20 32
v 16 20 16
v 16 20 32
v 0 4 16
v 16 4 16
v 0 20 16
v 16 20 16
v 3 3 19
v 13 3 19
v 3 4 19
v 13 4 19
v 4 0 20
v 12 0 20
v 4 3 20
v 12 3 20
v 6 0 26
v 10 0 26
v 6 7 26
v 10 7 26
v 6 0 22
v 10 0 22
v 6 7 22
v 10 7 22
v 4 0 28
v 12 0 28
v 4 3 28
v 12 3 28
v 3 3 29
v 13 3 29
v 3 4 29
v 13 4 29
v 0 4 32
v 16 4 32
v 0 20 32
v 16 20 32

# faces
f 3/1/1 2/1/1 1/1/1
f 4/1/1 2/1/1 3/1/1
f 7/4/1 6/4/1 5/4/1
f 8/4/1 6/4/1 7/4/1
f 11/4/1 10/4/1 9/4/1
f 12/4/1 10/4/1 11/4/1
f 15/4/1 14/4/1 13/4/1
f 16/4/1 14/4/1 15/4/1
f 17/4/2 18/4/2 19/4/2
f 19/4/2 18/4/2 20/4/2
f 21/4/2 22/4/2 23/4/2
f 23/4/2 22/4/2 24/4/2
f 25/4/2 26/4/2 27/4/2
f 27/4/2 26/4/2 28/4/2
f 29/1/2 30/1/2 31/1/2
f 31/1/2 30/1/2 32/1/2
f 35/4/3 34/4/3 33/4/3
f 36/4/3 34/4/3 35/4/3
f 37/4/3 35/4/3 33/4/3
f 38/4/3 34/4/3 36/4/3
f 39/4/3 37/4/3 33/4/3
f 39/4/3 38/4/3 37/4/3
f 40/4/3 34/4/3 38/4/3
f 40/4/3 38/4/3 39/4/3
f 43/4/3 42/4/3 41/4/3
f 44/4/3 42/4/3 43/4/3
f 45/4/3 43/4/3 41/4/3
f 46/4/3 42/4/3 44/4/3
f 47/4/3 45/4/3 41/4/3
f 47/4/3 46/4/3 45/4/3
f 48/4/3 42/4/3 46/4/3
f 48/4/3 46/4/3 47/4/3
f 51/1/3 50/1/3 49/1/3
f 52/1/3 50/1/3 51/1/3
f 53/1/3 51/1/3 49/1/3
f 54/1/3 50/1/3 52/1/3
f 55/1/3 53/1/3 49/1/3
f 55/1/3 54/1/3 53/1/3
f 56/1/3 50/1/3 54/1/3
f 56/1/3 54/1/3 55/1/3
f 59/4/3 58/4/3 57/4/3
f 60/4/3 58/4/3 59/4/3
f 61/1/4 62/1/4 63/1/4
f 63/1/4 62/1/4 64/1/4
f 67/1/5 66/1/5 65/1/5
f 68/1/5 66/1/5 67/1/5
f 71/4/5 70/4/5 69/4/5
f 72/4/5 70/4/5 71/4/5
f 75/4/5 74/4/5 73/4/5
f 76/4/5 74/4/5 75/4/5
f 79/4/5 78/4/5 77/4/5
f 80/4/5 78/4/5 79/4/5
f 81/4/6 82/4/6 83/4/6
f 83/4/6 82/4/6 84/4/6
f 85/4/6 86/4/6 87/4/6
f 87/4/6 86/4/6 88/4/6
f 89/4/6 90/4/6 91/4/6
f 91/4/6 90/4/6 92/4/6
f 93/1/6 94/1/6 95/1/6
f 95/1/6 94/1/6 96/1/6
