# MagicaVoxel @ ephtracy

# material
mtllib tracked robot spinning.mtl
usemtl palette

# normals
vn -1 0 0
vn 1 0 0
vn 0 -1 0
vn 0 1 0
vn 0 0 -1
vn 0 0 1

# texcoords
vt 0.0761719 0.5
vt 0.318359 0.5
vt 0.380859 0.5

# verts
v 5 6 24
v 5 23 24
v 5 8 26
v 5 21 26
v 5 8 29
v 5 21 29
v 5 6 31
v 5 23 31
v 7 8 26
v 7 21 26
v 7 8 29
v 7 21 29
v 9 8 31
v 9 21 31
v 9 8 34
v 9 21 34
v 10 10 38
v 10 18 38
v 10 10 47
v 10 18 47
v 19 6 24
v 19 8 24
v 19 21 24
v 19 23 24
v 19 6 31
v 19 8 31
v 19 21 31
v 19 23 31
v 9 6 24
v 9 8 24
v 9 21 24
v 9 23 24
v 9 6 31
v 9 8 31
v 9 21 31
v 9 23 31
v 18 10 38
v 18 18 38
v 18 10 47
v 18 18 47
v 19 8 31
v 19 21 31
v 19 8 34
v 19 21 34
v 21 8 26
v 21 21 26
v 21 8 29
v 21 21 29
v 23 6 24
v 23 23 24
v 23 8 26
v 23 21 26
v 23 8 29
v 23 21 29
v 23 6 31
v 23 23 31
v 5 6 24
v 5 6 31
v 9 6 24
v 9 6 31
v 19 6 24
v 19 6 31
v 23 6 24
v 23 6 31
v 9 8 24
v 9 8 31
v 9 8 34
v 19 8 24
v 19 8 31
v 19 8 34
v 10 10 38
v 10 10 47
v 11 10 40
v 11 10 41
v 11 10 42
v 11 10 46
v 12 10 40
v 12 10 41
v 13 10 40
v 13 10 41
v 13 10 42
v 13 10 43
v 14 10 40
v 14 10 41
v 15 10 40
v 15 10 41
v 15 10 42
v 15 10 43
v 16 10 40
v 16 10 41
v 17 10 40
v 17 10 41
v 17 10 42
v 17 10 46
v 18 10 38
v 18 10 47
v 5 21 26
v 5 21 29
v 7 21 26
v 7 21 29
v 21 21 26
v 21 21 29
v 23 21 26
v 23 21 29
v 5 8 26
v 5 8 29
v 7 8 26
v 7 8 29
v 21 8 26
v 21 8 29
v 23 8 26
v 23 8 29
v 10 18 38
v 10 18 47
v 18 18 38
v 18 18 47
v 9 21 24
v 9 21 31
v 9 21 34
v 19 21 24
v 19 21 31
v 19 21 34
v 5 23 24
v 5 23 31
v 9 23 24
v 9 23 31
v 19 23 24
v 19 23 31
v 23 23 24
v 23 23 31
v 5 6 24
v 9 6 24
v 19 6 24
v 23 6 24
v 9 8 24
v 19 8 24
v 9 21 24
v 19 21 24
v 5 23 24
v 9 23 24
v 19 23 24
v 23 23 24
v 5 8 29
v 7 8 29
v 21 8 29
v 23 8 29
v 5 21 29
v 7 21 29
v 21 21 29
v 23 21 29
v 10 10 38
v 18 10 38
v 10 18 38
v 18 18 38
v 5 8 26
v 7 8 26
v 21 8 26
v 23 8 26
v 5 21 26
v 7 21 26
v 21 21 26
v 23 21 26
v 5 6 31
v 9 6 31
v 19 6 31
v 23 6 31
v 9 8 31
v 19 8 31
v 9 21 31
v 19 21 31
v 5 23 31
v 9 23 31
v 19 23 31
v 23 23 31
v 9 8 34
v 19 8 34
v 9 21 34
v 19 21 34
v 10 10 47
v 18 10 47
v 10 18 47
v 18 18 47

# faces
f 3/3/1 2/3/1 1/3/1
f 4/3/1 2/3/1 3/3/1
f 5/3/1 3/3/1 1/3/1
f 6/3/1 2/3/1 4/3/1
f 7/3/1 5/3/1 1/3/1
f 7/3/1 6/3/1 5/3/1
f 8/3/1 2/3/1 6/3/1
f 8/3/1 6/3/1 7/3/1
f 11/2/1 10/2/1 9/2/1
f 12/2/1 10/2/1 11/2/1
f 15/1/1 14/1/1 13/1/1
f 16/1/1 14/1/1 15/1/1
f 19/1/1 18/1/1 17/1/1
f 20/1/1 18/1/1 19/1/1
f 25/3/1 22/3/1 21/3/1
f 26/3/1 22/3/1 25/3/1
f 27/3/1 24/3/1 23/3/1
f 28/3/1 24/3/1 27/3/1
f 29/3/2 30/3/2 33/3/2
f 33/3/2 30/3/2 34/3/2
f 31/3/2 32/3/2 35/3/2
f 35/3/2 32/3/2 36/3/2
f 37/1/2 38/1/2 39/1/2
f 39/1/2 38/1/2 40/1/2
f 41/1/2 42/1/2 43/1/2
f 43/1/2 42/1/2 44/1/2
f 45/2/2 46/2/2 47/2/2
f 47/2/2 46/2/2 48/2/2
f 49/3/2 50/3/2 51/3/2
f 51/3/2 50/3/2 52/3/2
f 49/3/2 51/3/2 53/3/2
f 52/3/2 50/3/2 54/3/2
f 49/3/2 53/3/2 55/3/2
f 53/3/2 54/3/2 55/3/2
f 54/3/2 50/3/2 56/3/2
f 55/3/2 54/3/2 56/3/2
f 59/3/3 58/3/3 57/3/3
f 60/3/3 58/3/3 59/3/3
f 63/3/3 62/3/3 61/3/3
f 64/3/3 62/3/3 63/3/3
f 68/1/3 66/1/3 65/1/3
f 68/1/3 67/1/3 66/1/3
f 69/1/3 67/1/3 68/1/3
f 70/1/3 67/1/3 69/1/3
f 73/1/3 72/1/3 71/1/3
f 74/1/3 72/1/3 73/1/3
f 75/1/3 72/1/3 74/1/3
f 76/1/3 72/1/3 75/1/3
f 77/1/3 73/1/3 71/1/3
f 77/3/3 74/3/3 73/3/3
f 78/1/3 75/1/3 74/1/3
f 78/3/3 74/3/3 77/3/3
f 79/1/3 77/1/3 71/1/3
f 79/2/3 78/2/3 77/2/3
f 80/1/3 75/1/3 78/1/3
f 80/2/3 78/2/3 79/2/3
f 81/3/3 76/3/3 75/3/3
f 81/1/3 75/1/3 80/1/3
f 82/3/3 76/3/3 81/3/3
f 83/3/3 80/3/3 79/3/3
f 83/1/3 79/1/3 71/1/3
f 84/1/3 82/1/3 81/1/3
f 84/3/3 80/3/3 83/3/3
f 84/1/3 81/1/3 80/1/3
f 85/1/3 83/1/3 71/1/3
f 85/2/3 84/2/3 83/2/3
f 86/1/3 82/1/3 84/1/3
f 86/2/3 84/2/3 85/2/3
f 87/1/3 82/1/3 86/1/3
f 88/3/3 76/3/3 82/3/3
f 88/1/3 82/1/3 87/1/3
f 89/1/3 85/1/3 71/1/3
f 89/3/3 86/3/3 85/3/3
f 90/1/3 87/1/3 86/1/3
f 90/3/3 86/3/3 89/3/3
f 91/1/3 89/1/3 71/1/3
f 91/2/3 90/2/3 89/2/3
f 92/1/3 87/1/3 90/1/3
f 92/2/3 90/2/3 91/2/3
f 93/3/3 88/3/3 87/3/3
f 93/1/3 87/1/3 92/1/3
f 94/1/3 72/1/3 76/1/3
f 94/3/3 88/3/3 93/3/3
f 94/3/3 76/3/3 88/3/3
f 95/1/3 93/1/3 92/1/3
f 95/1/3 91/1/3 71/1/3
f 95/1/3 94/1/3 93/1/3
f 95/1/3 92/1/3 91/1/3
f 96/1/3 72/1/3 94/1/3
f 96/1/3 94/1/3 95/1/3
f 99/3/3 98/3/3 97/3/3
f 100/3/3 98/3/3 99/3/3
f 103/3/3 102/3/3 101/3/3
f 104/3/3 102/3/3 103/3/3
f 105/3/4 106/3/4 107/3/4
f 107/3/4 106/3/4 108/3/4
f 109/3/4 110/3/4 111/3/4
f 111/3/4 110/3/4 112/3/4
f 113/1/4 114/1/4 115/1/4
f 115/1/4 114/1/4 116/1/4
f 117/1/4 118/1/4 120/1/4
f 118/1/4 119/1/4 120/1/4
f 120/1/4 119/1/4 121/1/4
f 121/1/4 119/1/4 122/1/4
f 123/3/4 124/3/4 125/3/4
f 125/3/4 124/3/4 126/3/4
f 127/3/4 128/3/4 129/3/4
f 129/3/4 128/3/4 130/3/4
f 135/3/5 132/3/5 131/3/5
f 136/3/5 134/3/5 133/3/5
f 137/3/5 135/3/5 131/3/5
f 137/1/5 136/1/5 135/1/5
f 138/3/5 134/3/5 136/3/5
f 138/1/5 136/1/5 137/1/5
f 139/3/5 137/3/5 131/3/5
f 140/3/5 137/3/5 139/3/5
f 141/3/5 134/3/5 138/3/5
f 142/3/5 134/3/5 141/3/5
f 147/3/5 144/3/5 143/3/5
f 148/3/5 144/3/5 147/3/5
f 149/3/5 146/3/5 145/3/5
f 150/3/5 146/3/5 149/3/5
f 153/1/5 152/1/5 151/1/5
f 154/1/5 152/1/5 153/1/5
f 155/3/6 156/3/6 159/3/6
f 159/3/6 156/3/6 160/3/6
f 157/3/6 158/3/6 161/3/6
f 161/3/6 158/3/6 162/3/6
f 163/3/6 164/3/6 167/3/6
f 165/3/6 166/3/6 168/3/6
f 163/3/6 167/3/6 169/3/6
f 168/3/6 166/3/6 170/3/6
f 163/3/6 169/3/6 171/3/6
f 171/3/6 169/3/6 172/3/6
f 170/3/6 166/3/6 173/3/6
f 173/3/6 166/3/6 174/3/6
f 175/1/6 176/1/6 177/1/6
f 177/1/6 176/1/6 178/1/6
f 179/1/6 180/1/6 181/1/6
f 181/1/6 180/1/6 182/1/6
