# MagicaVoxel @ ephtracy

# material
mtllib pathfinder head.mtl
usemtl palette

# normals
vn -1 0 0
vn 1 0 0
vn 0 -1 0
vn 0 1 0
vn 0 0 -1
vn 0 0 1

# texcoords
vt 0.0761719 0.5
vt 0.193359 0.5
vt 0.380859 0.5

# verts
v 0 0 15
v 0 14 15
v 0 0 23
v 0 6 23
v 0 6 24
v 0 14 24
v 5 14 20
v 5 16 20
v 5 14 21
v 5 15 21
v 5 15 29
v 5 16 29
v 6 0 17
v 6 6 17
v 6 0 21
v 6 6 21
v 2 0 17
v 2 6 17
v 2 0 21
v 2 6 21
v 6 14 20
v 6 16 20
v 6 14 21
v 6 15 21
v 6 15 29
v 6 16 29
v 8 0 15
v 8 14 15
v 8 0 23
v 8 6 23
v 8 6 24
v 8 14 24
v 0 0 15
v 0 0 23
v 2 0 17
v 2 0 21
v 6 0 17
v 6 0 21
v 8 0 15
v 8 0 23
v 0 6 23
v 0 6 24
v 2 6 17
v 2 6 21
v 6 6 17
v 6 6 21
v 8 6 23
v 8 6 24
v 5 15 21
v 5 15 29
v 6 15 21
v 6 15 29
v 0 14 15
v 0 14 24
v 5 14 20
v 5 14 21
v 6 14 20
v 6 14 21
v 8 14 15
v 8 14 24
v 5 16 20
v 5 16 29
v 6 16 20
v 6 16 29
v 0 0 15
v 8 0 15
v 0 14 15
v 8 14 15
v 5 14 20
v 6 14 20
v 5 16 20
v 6 16 20
v 2 0 21
v 6 0 21
v 2 6 21
v 6 6 21
v 2 0 17
v 6 0 17
v 2 6 17
v 6 6 17
v 5 14 21
v 6 14 21
v 5 15 21
v 6 15 21
v 0 0 23
v 8 0 23
v 0 6 23
v 8 6 23
v 0 6 24
v 8 6 24
v 0 14 24
v 8 14 24
v 5 15 29
v 6 15 29
v 5 16 29
v 6 16 29

# faces
f 3/1/1 2/1/1 1/1/1
f 4/1/1 2/1/1 3/1/1
f 5/1/1 2/1/1 4/1/1
f 6/1/1 2/1/1 5/1/1
f 9/2/1 8/2/1 7/2/1
f 10/2/1 8/2/1 9/2/1
f 11/2/1 8/2/1 10/2/1
f 12/2/1 8/2/1 11/2/1
f 15/1/1 14/1/1 13/1/1
f 16/1/1 14/1/1 15/1/1
f 17/1/2 18/1/2 19/1/2
f 19/1/2 18/1/2 20/1/2
f 21/2/2 22/2/2 23/2/2
f 23/2/2 22/2/2 24/2/2
f 24/2/2 22/2/2 25/2/2
f 25/2/2 22/2/2 26/2/2
f 27/1/2 28/1/2 29/1/2
f 29/1/2 28/1/2 30/1/2
f 30/1/2 28/1/2 31/1/2
f 31/1/2 28/1/2 32/1/2
f 35/1/3 34/1/3 33/1/3
f 36/1/3 34/1/3 35/1/3
f 37/1/3 35/1/3 33/1/3
f 38/1/3 34/1/3 36/1/3
f 39/1/3 37/1/3 33/1/3
f 39/1/3 38/1/3 37/1/3
f 40/1/3 34/1/3 38/1/3
f 40/1/3 38/1/3 39/1/3
f 45/3/3 44/3/3 43/3/3
f 46/3/3 44/3/3 45/3/3
f 47/1/3 42/1/3 41/1/3
f 48/1/3 42/1/3 47/1/3
f 51/2/3 50/2/3 49/2/3
f 52/2/3 50/2/3 51/2/3
f 53/1/4 54/1/4 55/1/4
f 55/1/4 54/1/4 56/1/4
f 53/1/4 55/1/4 57/1/4
f 56/1/4 54/1/4 58/1/4
f 53/1/4 57/1/4 59/1/4
f 57/1/4 58/1/4 59/1/4
f 58/1/4 54/1/4 60/1/4
f 59/1/4 58/1/4 60/1/4
f 61/2/4 62/2/4 63/2/4
f 63/2/4 62/2/4 64/2/4
f 67/1/5 66/1/5 65/1/5
f 68/1/5 66/1/5 67/1/5
f 71/2/5 70/2/5 69/2/5
f 72/2/5 70/2/5 71/2/5
f 75/1/5 74/1/5 73/1/5
f 76/1/5 74/1/5 75/1/5
f 77/1/6 78/1/6 79/1/6
f 79/1/6 78/1/6 80/1/6
f 81/2/6 82/2/6 83/2/6
f 83/2/6 82/2/6 84/2/6
f 85/1/6 86/1/6 87/1/6
f 87/1/6 86/1/6 88/1/6
f 89/1/6 90/1/6 91/1/6
f 91/1/6 90/1/6 92/1/6
f 93/2/6 94/2/6 95/2/6
f 95/2/6 94/2/6 96/2/6
