# MagicaVoxel @ ephtracy

# material
mtllib robot wheeled.mtl
usemtl palette

# normals
vn -1 0 0
vn 1 0 0
vn 0 0 1
vn 0 0 -1
vn 0 -1 0
vn 0 1 0

# texcoords
vt 0.0761719 0.5
vt 0.193359 0.5
vt 0.318359 0.5
vt 0.380859 0.5

# verts
v -11 11 11
v -11 11 7
v -11 13 11
v -11 13 9
v -11 13 7
v -11 13 5
v -11 13 -6
v -11 16 11
v -11 16 9
v -11 17 7
v -11 17 5
v -11 17 -2
v -11 18 11
v -11 18 7
v -11 21 -2
v -11 21 -6
v -9 0 5
v -9 0 -11
v -9 2 3
v -9 2 -9
v -9 6 3
v -9 6 -9
v -9 8 5
v -9 8 -11
v -7 2 3
v -7 2 -9
v -7 6 3
v -7 6 -9
v -7 12 4
v -7 12 -10
v -7 13 4
v -7 13 -6
v -7 17 4
v -7 17 -2
v -7 21 -2
v -7 21 -6
v -7 24 4
v -7 24 -10
v -4 19 5
v -4 19 4
v -4 21 5
v -4 21 4
v -2 8 -1
v -2 8 -5
v -2 12 -1
v -2 12 -5
v 1 18 5
v 1 18 4
v 1 22 5
v 1 22 4
v 2 0 5
v 2 0 -11
v 2 3 -1
v 2 3 -5
v 2 8 5
v 2 8 -1
v 2 8 -5
v 2 8 -11
v 4 19 5
v 4 19 4
v 4 21 5
v 4 21 4
v 7 11 11
v 7 11 7
v 7 13 11
v 7 13 9
v 7 13 7
v 7 13 5
v 7 13 4
v 7 16 11
v 7 16 9
v 7 17 7
v 7 17 5
v 7 17 4
v 7 18 11
v 7 18 7
v -7 11 11
v -7 11 7
v -7 13 11
v -7 13 9
v -7 13 7
v -7 13 5
v -7 13 4
v -7 16 11
v -7 16 9
v -7 17 7
v -7 17 5
v -7 17 4
v -7 18 11
v -7 18 7
v -2 0 5
v -2 0 -11
v -2 3 -1
v -2 3 -5
v -2 8 5
v -2 8 -1
v -2 8 -5
v -2 8 -11
v -2 19 5
v -2 19 4
v -2 21 5
v -2 21 4
v 2 8 -1
v 2 8 -5
v 2 12 -1
v 2 12 -5
v 2 19 5
v 2 19 4
v 2 21 5
v 2 21 4
v 5 18 5
v 5 18 4
v 5 22 5
v 5 22 4
v 7 2 3
v 7 2 -9
v 7 6 3
v 7 6 -9
v 7 12 4
v 7 12 -10
v 7 13 4
v 7 13 -6
v 7 17 4
v 7 17 -2
v 7 21 -2
v 7 21 -6
v 7 24 4
v 7 24 -10
v 9 0 5
v 9 0 -11
v 9 2 3
v 9 2 -9
v 9 6 3
v 9 6 -9
v 9 8 5
v 9 8 -11
v 11 11 11
v 11 11 7
v 11 13 11
v 11 13 9
v 11 13 7
v 11 13 5
v 11 13 -6
v 11 16 11
v 11 16 9
v 11 17 7
v 11 17 5
v 11 17 -2
v 11 18 11
v 11 18 7
v 11 21 -2
v 11 21 -6
v -11 11 11
v -11 13 11
v -11 16 11
v -11 18 11
v -7 11 11
v -7 13 11
v -7 16 11
v -7 18 11
v 7 11 11
v 7 13 11
v 7 16 11
v 7 18 11
v 11 11 11
v 11 13 11
v 11 16 11
v 11 18 11
v -11 13 9
v -11 16 9
v -7 13 9
v -7 16 9
v 7 13 9
v 7 16 9
v 11 13 9
v 11 16 9
v -9 0 5
v -9 8 5
v -4 19 5
v -4 21 5
v -2 0 5
v -2 8 5
v -2 19 5
v -2 21 5
v 1 18 5
v 1 22 5
v 2 0 5
v 2 8 5
v 2 19 5
v 2 21 5
v 4 19 5
v 4 21 5
v 5 18 5
v 5 22 5
v 9 0 5
v 9 8 5
v -7 12 4
v -7 13 4
v -7 17 4
v -7 24 4
v -4 19 4
v -4 21 4
v -3 14 4
v -3 17 4
v -2 14 4
v -2 17 4
v -2 19 4
v -2 21 4
v -1 14 4
v -1 17 4
v 0 14 4
v 0 17 4
v 1 14 4
v 1 17 4
v 1 18 4
v 1 22 4
v 2 14 4
v 2 17 4
v 2 19 4
v 2 21 4
v 3 14 4
v 3 17 4
v 4 19 4
v 4 21 4
v 5 18 4
v 5 22 4
v 7 12 4
v 7 13 4
v 7 17 4
v 7 24 4
v -2 3 -1
v -2 8 -1
v -2 12 -1
v 2 3 -1
v 2 8 -1
v 2 12 -1
v -11 17 -2
v -11 21 -2
v -7 17 -2
v -7 21 -2
v 7 17 -2
v 7 21 -2
v 11 17 -2
v 11 21 -2
v -9 2 -9
v -9 6 -9
v -7 2 -9
v -7 6 -9
v 7 2 -9
v 7 6 -9
v 9 2 -9
v 9 6 -9
v -11 11 7
v -11 13 7
v -11 17 7
v -11 18 7
v -7 11 7
v -7 13 7
v -7 17 7
v -7 18 7
v 7 11 7
v 7 13 7
v 7 17 7
v 7 18 7
v 11 11 7
v 11 13 7
v 11 17 7
v 11 18 7
v -9 2 3
v -9 6 3
v -7 2 3
v -7 6 3
v 7 2 3
v 7 6 3
v 9 2 3
v 9 6 3
v -2 3 -5
v -2 8 -5
v -2 12 -5
v 2 3 -5
v 2 8 -5
v 2 12 -5
v -11 13 -6
v -11 21 -6
v -7 13 -6
v -7 21 -6
v 7 13 -6
v 7 21 -6
v 11 13 -6
v 11 21 -6
v -7 12 -10
v -7 24 -10
v 7 12 -10
v 7 24 -10
v -9 0 -11
v -9 8 -11
v -2 0 -11
v -2 8 -11
v 2 0 -11
v 2 8 -11
v 9 0 -11
v 9 8 -11
v -9 0 5
v -2 0 5
v 2 0 5
v 9 0 5
v -9 0 -11
v -2 0 -11
v 2 0 -11
v 9 0 -11
v -2 3 -1
v 2 3 -1
v -2 3 -5
v 2 3 -5
v -9 6 3
v -7 6 3
v 7 6 3
v 9 6 3
v -9 6 -9
v -7 6 -9
v 7 6 -9
v 9 6 -9
v -11 11 11
v -7 11 11
v 7 11 11
v 11 11 11
v -11 11 7
v -7 11 7
v 7 11 7
v 11 11 7
v -7 12 4
v 7 12 4
v -2 12 -1
v 2 12 -1
v -2 12 -5
v 2 12 -5
v -7 12 -10
v 7 12 -10
v -11 13 7
v -7 13 7
v 7 13 7
v 11 13 7
v -11 13 5
v -7 13 5
v 7 13 5
v 11 13 5
v -7 13 4
v 7 13 4
v -11 13 -6
v -7 13 -6
v 7 13 -6
v 11 13 -6
v -11 16 11
v -7 16 11
v 7 16 11
v 11 16 11
v -11 16 9
v -7 16 9
v 7 16 9
v 11 16 9
v 1 18 5
v 5 18 5
v 1 18 4
v 5 18 4
v -4 19 5
v -2 19 5
v -4 19 4
v -2 19 4
v 2 21 5
v 4 21 5
v 2 21 4
v 4 21 4
v -9 2 3
v -7 2 3
v 7 2 3
v 9 2 3
v -9 2 -9
v -7 2 -9
v 7 2 -9
v 9 2 -9
v -9 8 5
v -2 8 5
v 2 8 5
v 9 8 5
v -2 8 -1
v 2 8 -1
v -2 8 -5
v 2 8 -5
v -9 8 -11
v -2 8 -11
v 2 8 -11
v 9 8 -11
v -11 13 11
v -7 13 11
v 7 13 11
v 11 13 11
v -11 13 9
v -7 13 9
v 7 13 9
v 11 13 9
v -11 17 7
v -7 17 7
v 7 17 7
v 11 17 7
v -11 17 5
v -7 17 5
v 7 17 5
v 11 17 5
v -7 17 4
v 7 17 4
v -11 17 -2
v -7 17 -2
v 7 17 -2
v 11 17 -2
v -11 18 11
v -7 18 11
v 7 18 11
v 11 18 11
v -11 18 7
v -7 18 7
v 7 18 7
v 11 18 7
v 2 19 5
v 4 19 5
v 2 19 4
v 4 19 4
v -4 21 5
v -2 21 5
v -4 21 4
v -2 21 4
v -11 21 -2
v -7 21 -2
v 7 21 -2
v 11 21 -2
v -11 21 -6
v -7 21 -6
v 7 21 -6
v 11 21 -6
v 1 22 5
v 5 22 5
v 1 22 4
v 5 22 4
v -7 24 4
v 7 24 4
v -7 24 -10
v 7 24 -10

# faces
f 3/2/1 2/2/1 1/2/1
f 4/2/1 2/2/1 3/2/1
f 5/2/1 2/2/1 4/2/1
f 9/2/1 5/2/1 4/2/1
f 9/2/1 6/2/1 5/2/1
f 10/2/1 6/2/1 9/2/1
f 10/2/1 9/2/1 8/2/1
f 11/1/1 7/1/1 6/1/1
f 11/2/1 6/2/1 10/2/1
f 12/1/1 7/1/1 11/1/1
f 13/2/1 10/2/1 8/2/1
f 14/2/1 10/2/1 13/2/1
f 15/1/1 7/1/1 12/1/1
f 16/1/1 7/1/1 15/1/1
f 19/4/1 18/4/1 17/4/1
f 20/4/1 18/4/1 19/4/1
f 21/4/1 19/4/1 17/4/1
f 22/4/1 18/4/1 20/4/1
f 23/4/1 21/4/1 17/4/1
f 23/4/1 22/4/1 21/4/1
f 24/4/1 18/4/1 22/4/1
f 24/4/1 22/4/1 23/4/1
f 27/3/1 26/3/1 25/3/1
f 28/3/1 26/3/1 27/3/1
f 31/1/1 30/1/1 29/1/1
f 32/1/1 30/1/1 31/1/1
f 35/1/1 34/1/1 33/1/1
f 36/1/1 30/1/1 32/1/1
f 37/1/1 35/1/1 33/1/1
f 37/1/1 36/1/1 35/1/1
f 38/1/1 30/1/1 36/1/1
f 38/1/1 36/1/1 37/1/1
f 41/4/1 40/4/1 39/4/1
f 42/4/1 40/4/1 41/4/1
f 45/1/1 44/1/1 43/1/1
f 46/1/1 44/1/1 45/1/1
f 49/4/1 48/4/1 47/4/1
f 50/4/1 48/4/1 49/4/1
f 53/4/1 52/4/1 51/4/1
f 54/4/1 52/4/1 53/4/1
f 55/4/1 53/4/1 51/4/1
f 56/4/1 53/4/1 55/4/1
f 57/4/1 52/4/1 54/4/1
f 58/4/1 52/4/1 57/4/1
f 61/4/1 60/4/1 59/4/1
f 62/4/1 60/4/1 61/4/1
f 65/2/1 64/2/1 63/2/1
f 66/2/1 64/2/1 65/2/1
f 67/2/1 64/2/1 66/2/1
f 71/2/1 67/2/1 66/2/1
f 71/2/1 68/2/1 67/2/1
f 72/2/1 68/2/1 71/2/1
f 72/2/1 71/2/1 70/2/1
f 73/1/1 69/1/1 68/1/1
f 73/2/1 68/2/1 72/2/1
f 74/1/1 69/1/1 73/1/1
f 75/2/1 72/2/1 70/2/1
f 76/2/1 72/2/1 75/2/1
f 77/2/2 78/2/2 79/2/2
f 79/2/2 78/2/2 80/2/2
f 80/2/2 78/2/2 81/2/2
f 80/2/2 81/2/2 85/2/2
f 81/2/2 82/2/2 85/2/2
f 85/2/2 82/2/2 86/2/2
f 84/2/2 85/2/2 86/2/2
f 82/1/2 83/1/2 87/1/2
f 86/2/2 82/2/2 87/2/2
f 87/1/2 83/1/2 88/1/2
f 84/2/2 86/2/2 89/2/2
f 89/2/2 86/2/2 90/2/2
f 91/4/2 92/4/2 93/4/2
f 93/4/2 92/4/2 94/4/2
f 91/4/2 93/4/2 95/4/2
f 95/4/2 93/4/2 96/4/2
f 94/4/2 92/4/2 97/4/2
f 97/4/2 92/4/2 98/4/2
f 99/4/2 100/4/2 101/4/2
f 101/4/2 100/4/2 102/4/2
f 103/1/2 104/1/2 105/1/2
f 105/1/2 104/1/2 106/1/2
f 107/4/2 108/4/2 109/4/2
f 109/4/2 108/4/2 110/4/2
f 111/4/2 112/4/2 113/4/2
f 113/4/2 112/4/2 114/4/2
f 115/3/2 116/3/2 117/3/2
f 117/3/2 116/3/2 118/3/2
f 119/1/2 120/1/2 121/1/2
f 121/1/2 120/1/2 122/1/2
f 123/1/2 124/1/2 125/1/2
f 122/1/2 120/1/2 126/1/2
f 123/1/2 125/1/2 127/1/2
f 125/1/2 126/1/2 127/1/2
f 126/1/2 120/1/2 128/1/2
f 127/1/2 126/1/2 128/1/2
f 129/4/2 130/4/2 131/4/2
f 131/4/2 130/4/2 132/4/2
f 129/4/2 131/4/2 133/4/2
f 132/4/2 130/4/2 134/4/2
f 129/4/2 133/4/2 135/4/2
f 133/4/2 134/4/2 135/4/2
f 134/4/2 130/4/2 136/4/2
f 135/4/2 134/4/2 136/4/2
f 137/2/2 138/2/2 139/2/2
f 139/2/2 138/2/2 140/2/2
f 140/2/2 138/2/2 141/2/2
f 140/2/2 141/2/2 145/2/2
f 141/2/2 142/2/2 145/2/2
f 145/2/2 142/2/2 146/2/2
f 144/2/2 145/2/2 146/2/2
f 142/1/2 143/1/2 147/1/2
f 146/2/2 142/2/2 147/2/2
f 147/1/2 143/1/2 148/1/2
f 144/2/2 146/2/2 149/2/2
f 149/2/2 146/2/2 150/2/2
f 148/1/2 143/1/2 151/1/2
f 151/1/2 143/1/2 152/1/2
f 157/2/3 154/2/3 153/2/3
f 158/2/3 154/2/3 157/2/3
f 159/2/3 156/2/3 155/2/3
f 160/2/3 156/2/3 159/2/3
f 165/2/3 162/2/3 161/2/3
f 166/2/3 162/2/3 165/2/3
f 167/2/3 164/2/3 163/2/3
f 168/2/3 164/2/3 167/2/3
f 171/2/3 170/2/3 169/2/3
f 172/2/3 170/2/3 171/2/3
f 175/2/3 174/2/3 173/2/3
f 176/2/3 174/2/3 175/2/3
f 181/4/3 178/4/3 177/4/3
f 182/4/3 178/4/3 181/4/3
f 183/4/3 180/4/3 179/4/3
f 184/4/3 180/4/3 183/4/3
f 189/4/3 186/4/3 185/4/3
f 190/4/3 186/4/3 189/4/3
f 191/4/3 189/4/3 185/4/3
f 192/4/3 186/4/3 190/4/3
f 193/4/3 191/4/3 185/4/3
f 193/4/3 192/4/3 191/4/3
f 194/4/3 186/4/3 192/4/3
f 194/4/3 192/4/3 193/4/3
f 195/4/3 188/4/3 187/4/3
f 196/4/3 188/4/3 195/4/3
f 201/1/3 198/1/3 197/1/3
f 201/1/3 200/1/3 199/1/3
f 201/1/3 199/1/3 198/1/3
f 202/1/3 200/1/3 201/1/3
f 203/1/3 201/1/3 197/1/3
f 204/1/3 201/1/3 203/1/3
f 205/1/3 203/1/3 197/1/3
f 205/3/3 204/3/3 203/3/3
f 206/1/3 201/1/3 204/1/3
f 206/3/3 204/3/3 205/3/3
f 207/1/3 201/1/3 206/1/3
f 208/1/3 200/1/3 202/1/3
f 209/1/3 205/1/3 197/1/3
f 209/4/3 206/4/3 205/4/3
f 210/1/3 207/1/3 206/1/3
f 210/4/3 206/4/3 209/4/3
f 210/1/3 208/1/3 207/1/3
f 211/1/3 209/1/3 197/1/3
f 211/3/3 210/3/3 209/3/3
f 212/1/3 208/1/3 210/1/3
f 212/3/3 210/3/3 211/3/3
f 213/1/3 211/1/3 197/1/3
f 213/4/3 212/4/3 211/4/3
f 214/1/3 208/1/3 212/1/3
f 214/4/3 212/4/3 213/4/3
f 215/1/3 208/1/3 214/1/3
f 216/1/3 200/1/3 208/1/3
f 216/1/3 208/1/3 215/1/3
f 217/1/3 213/1/3 197/1/3
f 217/3/3 214/3/3 213/3/3
f 218/1/3 215/1/3 214/1/3
f 218/3/3 214/3/3 217/3/3
f 221/1/3 217/1/3 197/1/3
f 221/4/3 218/4/3 217/4/3
f 222/1/3 215/1/3 218/1/3
f 222/4/3 218/4/3 221/4/3
f 223/2/3 220/2/3 219/2/3
f 224/2/3 220/2/3 223/2/3
f 225/1/3 215/1/3 222/1/3
f 225/1/3 222/1/3 221/1/3
f 226/1/3 200/1/3 216/1/3
f 227/1/3 225/1/3 221/1/3
f 227/1/3 226/1/3 225/1/3
f 227/1/3 221/1/3 197/1/3
f 228/1/3 226/1/3 227/1/3
f 229/1/3 226/1/3 228/1/3
f 230/1/3 200/1/3 226/1/3
f 230/1/3 226/1/3 229/1/3
f 234/1/3 232/1/3 231/1/3
f 234/1/3 233/1/3 232/1/3
f 235/1/3 233/1/3 234/1/3
f 236/1/3 233/1/3 235/1/3
f 239/1/3 238/1/3 237/1/3
f 240/1/3 238/1/3 239/1/3
f 243/1/3 242/1/3 241/1/3
f 244/1/3 242/1/3 243/1/3
f 247/4/3 246/4/3 245/4/3
f 248/4/3 246/4/3 247/4/3
f 251/4/3 250/4/3 249/4/3
f 252/4/3 250/4/3 251/4/3
f 253/2/4 254/2/4 257/2/4
f 257/2/4 254/2/4 258/2/4
f 255/2/4 256/2/4 259/2/4
f 259/2/4 256/2/4 260/2/4
f 261/2/4 262/2/4 265/2/4
f 265/2/4 262/2/4 266/2/4
f 263/2/4 264/2/4 267/2/4
f 267/2/4 264/2/4 268/2/4
f 269/4/4 270/4/4 271/4/4
f 271/4/4 270/4/4 272/4/4
f 273/4/4 274/4/4 275/4/4
f 275/4/4 274/4/4 276/4/4
f 277/1/4 278/1/4 280/1/4
f 278/1/4 279/1/4 280/1/4
f 280/1/4 279/1/4 281/1/4
f 281/1/4 279/1/4 282/1/4
f 283/1/4 284/1/4 285/1/4
f 285/1/4 284/1/4 286/1/4
f 287/1/4 288/1/4 289/1/4
f 289/1/4 288/1/4 290/1/4
f 291/1/4 292/1/4 293/1/4
f 293/1/4 292/1/4 294/1/4
f 295/4/4 296/4/4 297/4/4
f 297/4/4 296/4/4 298/4/4
f 299/4/4 300/4/4 301/4/4
f 301/4/4 300/4/4 302/4/4
f 307/4/5 304/4/5 303/4/5
f 308/4/5 304/4/5 307/4/5
f 309/4/5 306/4/5 305/4/5
f 310/4/5 306/4/5 309/4/5
f 313/1/5 312/1/5 311/1/5
f 314/1/5 312/1/5 313/1/5
f 319/4/5 316/4/5 315/4/5
f 320/4/5 316/4/5 319/4/5
f 321/4/5 318/4/5 317/4/5
f 322/4/5 318/4/5 321/4/5
f 327/2/5 324/2/5 323/2/5
f 328/2/5 324/2/5 327/2/5
f 329/2/5 326/2/5 325/2/5
f 330/2/5 326/2/5 329/2/5
f 333/1/5 332/1/5 331/1/5
f 334/1/5 332/1/5 333/1/5
f 335/1/5 333/1/5 331/1/5
f 336/1/5 332/1/5 334/1/5
f 337/1/5 335/1/5 331/1/5
f 337/1/5 336/1/5 335/1/5
f 338/1/5 332/1/5 336/1/5
f 338/1/5 336/1/5 337/1/5
f 343/2/5 340/2/5 339/2/5
f 344/2/5 340/2/5 343/2/5
f 345/2/5 342/2/5 341/2/5
f 346/2/5 342/2/5 345/2/5
f 347/1/5 344/1/5 343/1/5
f 348/1/5 346/1/5 345/1/5
f 349/1/5 347/1/5 343/1/5
f 350/1/5 347/1/5 349/1/5
f 351/1/5 346/1/5 348/1/5
f 352/1/5 346/1/5 351/1/5
f 357/2/5 354/2/5 353/2/5
f 358/2/5 354/2/5 357/2/5
f 359/2/5 356/2/5 355/2/5
f 360/2/5 356/2/5 359/2/5
f 363/4/5 362/4/5 361/4/5
f 364/4/5 362/4/5 363/4/5
f 367/4/5 366/4/5 365/4/5
f 368/4/5 366/4/5 367/4/5
f 371/4/5 370/4/5 369/4/5
f 372/4/5 370/4/5 371/4/5
f 373/4/6 374/4/6 377/4/6
f 377/4/6 374/4/6 378/4/6
f 375/4/6 376/4/6 379/4/6
f 379/4/6 376/4/6 380/4/6
f 381/4/6 382/4/6 385/4/6
f 383/4/6 384/4/6 386/4/6
f 381/4/6 385/4/6 387/4/6
f 386/4/6 384/4/6 388/4/6
f 381/4/6 387/4/6 389/4/6
f 389/4/6 387/4/6 390/4/6
f 388/4/6 384/4/6 391/4/6
f 391/4/6 384/4/6 392/4/6
f 393/2/6 394/2/6 397/2/6
f 397/2/6 394/2/6 398/2/6
f 395/2/6 396/2/6 399/2/6
f 399/2/6 396/2/6 400/2/6
f 401/2/6 402/2/6 405/2/6
f 405/2/6 402/2/6 406/2/6
f 403/2/6 404/2/6 407/2/6
f 407/2/6 404/2/6 408/2/6
f 405/1/6 406/1/6 409/1/6
f 407/1/6 408/1/6 410/1/6
f 405/1/6 409/1/6 411/1/6
f 411/1/6 409/1/6 412/1/6
f 410/1/6 408/1/6 413/1/6
f 413/1/6 408/1/6 414/1/6
f 415/2/6 416/2/6 419/2/6
f 419/2/6 416/2/6 420/2/6
f 417/2/6 418/2/6 421/2/6
f 421/2/6 418/2/6 422/2/6
f 423/4/6 424/4/6 425/4/6
f 425/4/6 424/4/6 426/4/6
f 427/4/6 428/4/6 429/4/6
f 429/4/6 428/4/6 430/4/6
f 431/1/6 432/1/6 435/1/6
f 435/1/6 432/1/6 436/1/6
f 433/1/6 434/1/6 437/1/6
f 437/1/6 434/1/6 438/1/6
f 439/4/6 440/4/6 441/4/6
f 441/4/6 440/4/6 442/4/6
f 443/1/6 444/1/6 445/1/6
f 445/1/6 444/1/6 446/1/6
