# MagicaVoxel @ ephtracy

# material
mtllib xmas hat.mtl
usemtl palette

# normals
vn -1 0 0
vn 1 0 0
vn 0 -1 0
vn 0 1 0
vn 0 0 -1
vn 0 0 1

# texcoords
vt 0.00195312 0.5
vt 0.396484 0.5

# verts
v 1 0 19
v 1 12 19
v 1 0 22
v 1 12 22
v 2 1 22
v 2 11 22
v 2 1 24
v 2 11 24
v 3 2 24
v 3 10 24
v 3 2 26
v 3 10 26
v 5 13 14
v 5 18 14
v 5 13 18
v 5 18 18
v 5 4 26
v 5 9 26
v 5 4 28
v 5 9 28
v 6 14 18
v 6 17 18
v 6 12 20
v 6 14 20
v 6 11 22
v 6 12 22
v 6 15 22
v 6 17 22
v 6 10 24
v 6 11 24
v 6 13 24
v 6 15 24
v 6 9 26
v 6 10 26
v 6 11 26
v 6 13 26
v 6 9 28
v 6 11 28
v 10 5 25
v 10 9 25
v 10 5 27
v 10 9 27
v 12 3 22
v 12 9 22
v 12 3 25
v 12 9 25
v 14 1 19
v 14 11 19
v 14 1 22
v 14 11 22
v 2 1 19
v 2 11 19
v 2 1 22
v 2 11 22
v 4 3 22
v 4 9 22
v 4 3 25
v 4 9 25
v 6 5 25
v 6 9 25
v 6 5 27
v 6 9 27
v 10 14 18
v 10 17 18
v 10 12 20
v 10 14 20
v 10 11 22
v 10 12 22
v 10 15 22
v 10 17 22
v 10 10 24
v 10 11 24
v 10 13 24
v 10 15 24
v 10 9 26
v 10 10 26
v 10 11 26
v 10 13 26
v 10 9 28
v 10 11 28
v 11 13 14
v 11 18 14
v 11 13 18
v 11 18 18
v 11 4 26
v 11 9 26
v 11 4 28
v 11 9 28
v 13 2 24
v 13 10 24
v 13 2 26
v 13 10 26
v 14 1 22
v 14 11 22
v 14 1 24
v 14 11 24
v 15 0 19
v 15 12 19
v 15 0 22
v 15 12 22
v 1 0 19
v 1 0 22
v 15 0 19
v 15 0 22
v 2 1 22
v 2 1 24
v 14 1 22
v 14 1 24
v 3 2 24
v 3 2 26
v 13 2 24
v 13 2 26
v 5 4 26
v 5 4 28
v 11 4 26
v 11 4 28
v 4 9 22
v 4 9 25
v 6 9 25
v 6 9 27
v 10 9 25
v 10 9 27
v 12 9 22
v 12 9 25
v 2 11 19
v 2 11 22
v 14 11 19
v 14 11 22
v 5 13 14
v 5 13 18
v 11 13 14
v 11 13 18
v 6 14 18
v 6 14 20
v 10 14 18
v 10 14 20
v 2 1 19
v 2 1 22
v 14 1 19
v 14 1 22
v 4 3 22
v 4 3 25
v 12 3 22
v 12 3 25
v 6 5 25
v 6 5 27
v 10 5 25
v 10 5 27
v 5 9 26
v 5 9 28
v 6 9 26
v 6 9 28
v 10 9 26
v 10 9 28
v 11 9 26
v 11 9 28
v 3 10 24
v 3 10 26
v 6 10 24
v 6 10 26
v 10 10 24
v 10 10 26
v 13 10 24
v 13 10 26
v 2 11 22
v 2 11 24
v 6 11 22
v 6 11 24
v 6 11 26
v 6 11 28
v 10 11 22
v 10 11 24
v 10 11 26
v 10 11 28
v 14 11 22
v 14 11 24
v 1 12 19
v 1 12 22
v 6 12 20
v 6 12 22
v 10 12 20
v 10 12 22
v 15 12 19
v 15 12 22
v 6 13 24
v 6 13 26
v 10 13 24
v 10 13 26
v 6 15 22
v 6 15 24
v 10 15 22
v 10 15 24
v 6 17 18
v 6 17 22
v 10 17 18
v 10 17 22
v 5 18 14
v 5 18 18
v 11 18 14
v 11 18 18
v 5 13 14
v 11 13 14
v 5 18 14
v 11 18 14
v 1 0 19
v 15 0 19
v 2 1 19
v 14 1 19
v 2 11 19
v 14 11 19
v 1 12 19
v 15 12 19
v 6 12 20
v 10 12 20
v 6 14 20
v 10 14 20
v 2 1 22
v 14 1 22
v 4 3 22
v 12 3 22
v 4 9 22
v 12 9 22
v 2 11 22
v 14 11 22
v 4 3 25
v 12 3 25
v 6 5 25
v 10 5 25
v 4 9 25
v 6 9 25
v 10 9 25
v 12 9 25
v 6 5 27
v 10 5 27
v 6 9 27
v 10 9 27
v 5 13 18
v 11 13 18
v 6 14 18
v 10 14 18
v 6 17 18
v 10 17 18
v 5 18 18
v 11 18 18
v 1 0 22
v 15 0 22
v 2 1 22
v 14 1 22
v 2 11 22
v 6 11 22
v 10 11 22
v 14 11 22
v 1 12 22
v 6 12 22
v 10 12 22
v 15 12 22
v 6 15 22
v 10 15 22
v 6 17 22
v 10 17 22
v 2 1 24
v 14 1 24
v 3 2 24
v 13 2 24
v 3 10 24
v 6 10 24
v 10 10 24
v 13 10 24
v 2 11 24
v 6 11 24
v 10 11 24
v 14 11 24
v 6 13 24
v 10 13 24
v 6 15 24
v 10 15 24
v 3 2 26
v 13 2 26
v 5 4 26
v 11 4 26
v 5 9 26
v 6 9 26
v 10 9 26
v 11 9 26
v 3 10 26
v 6 10 26
v 10 10 26
v 13 10 26
v 6 11 26
v 10 11 26
v 6 13 26
v 10 13 26
v 5 4 28
v 11 4 28
v 5 9 28
v 6 9 28
v 10 9 28
v 11 9 28
v 6 11 28
v 10 11 28

# faces
f 3/1/1 2/1/1 1/1/1
f 4/1/1 2/1/1 3/1/1
f 7/2/1 6/2/1 5/2/1
f 8/2/1 6/2/1 7/2/1
f 11/2/1 10/2/1 9/2/1
f 12/2/1 10/2/1 11/2/1
f 15/1/1 14/1/1 13/1/1
f 16/1/1 14/1/1 15/1/1
f 19/2/1 18/2/1 17/2/1
f 20/2/1 18/2/1 19/2/1
f 24/2/1 22/2/1 21/2/1
f 26/2/1 24/2/1 23/2/1
f 27/2/1 22/2/1 24/2/1
f 27/2/1 24/2/1 26/2/1
f 28/2/1 22/2/1 27/2/1
f 30/2/1 26/2/1 25/2/1
f 30/2/1 27/2/1 26/2/1
f 31/2/1 27/2/1 30/2/1
f 32/2/1 27/2/1 31/2/1
f 34/2/1 30/2/1 29/2/1
f 34/2/1 31/2/1 30/2/1
f 35/2/1 31/2/1 34/2/1
f 36/2/1 31/2/1 35/2/1
f 37/2/1 34/2/1 33/2/1
f 37/2/1 35/2/1 34/2/1
f 38/2/1 35/2/1 37/2/1
f 41/2/1 40/2/1 39/2/1
f 42/2/1 40/2/1 41/2/1
f 45/2/1 44/2/1 43/2/1
f 46/2/1 44/2/1 45/2/1
f 49/1/1 48/1/1 47/1/1
f 50/1/1 48/1/1 49/1/1
f 51/1/2 52/1/2 53/1/2
f 53/1/2 52/1/2 54/1/2
f 55/2/2 56/2/2 57/2/2
f 57/2/2 56/2/2 58/2/2
f 59/2/2 60/2/2 61/2/2
f 61/2/2 60/2/2 62/2/2
f 63/2/2 64/2/2 66/2/2
f 65/2/2 66/2/2 68/2/2
f 66/2/2 64/2/2 69/2/2
f 68/2/2 66/2/2 69/2/2
f 69/2/2 64/2/2 70/2/2
f 67/2/2 68/2/2 72/2/2
f 68/2/2 69/2/2 72/2/2
f 72/2/2 69/2/2 73/2/2
f 73/2/2 69/2/2 74/2/2
f 71/2/2 72/2/2 76/2/2
f 72/2/2 73/2/2 76/2/2
f 76/2/2 73/2/2 77/2/2
f 77/2/2 73/2/2 78/2/2
f 75/2/2 76/2/2 79/2/2
f 76/2/2 77/2/2 79/2/2
f 79/2/2 77/2/2 80/2/2
f 81/1/2 82/1/2 83/1/2
f 83/1/2 82/1/2 84/1/2
f 85/2/2 86/2/2 87/2/2
f 87/2/2 86/2/2 88/2/2
f 89/2/2 90/2/2 91/2/2
f 91/2/2 90/2/2 92/2/2
f 93/2/2 94/2/2 95/2/2
f 95/2/2 94/2/2 96/2/2
f 97/1/2 98/1/2 99/1/2
f 99/1/2 98/1/2 100/1/2
f 103/1/3 102/1/3 101/1/3
f 104/1/3 102/1/3 103/1/3
f 107/2/3 106/2/3 105/2/3
f 108/2/3 106/2/3 107/2/3
f 111/2/3 110/2/3 109/2/3
f 112/2/3 110/2/3 111/2/3
f 115/2/3 114/2/3 113/2/3
f 116/2/3 114/2/3 115/2/3
f 119/2/3 118/2/3 117/2/3
f 121/2/3 119/2/3 117/2/3
f 121/2/3 120/2/3 119/2/3
f 122/2/3 120/2/3 121/2/3
f 123/2/3 121/2/3 117/2/3
f 124/2/3 121/2/3 123/2/3
f 127/1/3 126/1/3 125/1/3
f 128/1/3 126/1/3 127/1/3
f 131/1/3 130/1/3 129/1/3
f 132/1/3 130/1/3 131/1/3
f 135/2/3 134/2/3 133/2/3
f 136/2/3 134/2/3 135/2/3
f 137/1/4 138/1/4 139/1/4
f 139/1/4 138/1/4 140/1/4
f 141/2/4 142/2/4 143/2/4
f 143/2/4 142/2/4 144/2/4
f 145/2/4 146/2/4 147/2/4
f 147/2/4 146/2/4 148/2/4
f 149/2/4 150/2/4 151/2/4
f 151/2/4 150/2/4 152/2/4
f 153/2/4 154/2/4 155/2/4
f 155/2/4 154/2/4 156/2/4
f 157/2/4 158/2/4 159/2/4
f 159/2/4 158/2/4 160/2/4
f 161/2/4 162/2/4 163/2/4
f 163/2/4 162/2/4 164/2/4
f 165/2/4 166/2/4 167/2/4
f 167/2/4 166/2/4 168/2/4
f 169/2/4 170/2/4 173/2/4
f 173/2/4 170/2/4 174/2/4
f 171/2/4 172/2/4 175/2/4
f 175/2/4 172/2/4 176/2/4
f 177/1/4 178/1/4 179/1/4
f 179/1/4 178/1/4 180/1/4
f 177/1/4 179/1/4 181/1/4
f 177/1/4 181/1/4 183/1/4
f 181/1/4 182/1/4 183/1/4
f 183/1/4 182/1/4 184/1/4
f 185/2/4 186/2/4 187/2/4
f 187/2/4 186/2/4 188/2/4
f 189/2/4 190/2/4 191/2/4
f 191/2/4 190/2/4 192/2/4
f 193/2/4 194/2/4 195/2/4
f 195/2/4 194/2/4 196/2/4
f 197/1/4 198/1/4 199/1/4
f 199/1/4 198/1/4 200/1/4
f 203/1/5 202/1/5 201/1/5
f 204/1/5 202/1/5 203/1/5
f 207/1/5 206/1/5 205/1/5
f 208/1/5 206/1/5 207/1/5
f 209/1/5 207/1/5 205/1/5
f 210/1/5 206/1/5 208/1/5
f 211/1/5 209/1/5 205/1/5
f 211/1/5 210/1/5 209/1/5
f 212/1/5 206/1/5 210/1/5
f 212/1/5 210/1/5 211/1/5
f 215/2/5 214/2/5 213/2/5
f 216/2/5 214/2/5 215/2/5
f 219/2/5 218/2/5 217/2/5
f 220/2/5 218/2/5 219/2/5
f 221/2/5 219/2/5 217/2/5
f 222/2/5 218/2/5 220/2/5
f 223/2/5 221/2/5 217/2/5
f 223/2/5 222/2/5 221/2/5
f 224/2/5 218/2/5 222/2/5
f 224/2/5 222/2/5 223/2/5
f 227/2/5 226/2/5 225/2/5
f 228/2/5 226/2/5 227/2/5
f 229/2/5 227/2/5 225/2/5
f 230/2/5 227/2/5 229/2/5
f 231/2/5 226/2/5 228/2/5
f 232/2/5 226/2/5 231/2/5
f 235/2/5 234/2/5 233/2/5
f 236/2/5 234/2/5 235/2/5
f 237/1/6 238/1/6 239/1/6
f 239/1/6 238/1/6 240/1/6
f 237/1/6 239/1/6 241/1/6
f 240/1/6 238/1/6 242/1/6
f 237/1/6 241/1/6 243/1/6
f 241/1/6 242/1/6 243/1/6
f 242/1/6 238/1/6 244/1/6
f 243/1/6 242/1/6 244/1/6
f 245/1/6 246/1/6 247/1/6
f 247/1/6 246/1/6 248/1/6
f 245/1/6 247/1/6 249/1/6
f 248/1/6 246/1/6 252/1/6
f 249/1/6 250/1/6 253/1/6
f 245/1/6 249/1/6 253/1/6
f 253/1/6 250/1/6 254/1/6
f 251/1/6 252/1/6 255/1/6
f 252/1/6 246/1/6 256/1/6
f 255/1/6 252/1/6 256/1/6
f 257/2/6 258/2/6 259/2/6
f 259/2/6 258/2/6 260/2/6
f 261/2/6 262/2/6 263/2/6
f 263/2/6 262/2/6 264/2/6
f 261/2/6 263/2/6 265/2/6
f 264/2/6 262/2/6 268/2/6
f 265/2/6 266/2/6 269/2/6
f 261/2/6 265/2/6 269/2/6
f 269/2/6 266/2/6 270/2/6
f 267/2/6 268/2/6 271/2/6
f 268/2/6 262/2/6 272/2/6
f 271/2/6 268/2/6 272/2/6
f 273/2/6 274/2/6 275/2/6
f 275/2/6 274/2/6 276/2/6
f 277/2/6 278/2/6 279/2/6
f 279/2/6 278/2/6 280/2/6
f 277/2/6 279/2/6 281/2/6
f 280/2/6 278/2/6 284/2/6
f 281/2/6 282/2/6 285/2/6
f 277/2/6 281/2/6 285/2/6
f 285/2/6 282/2/6 286/2/6
f 283/2/6 284/2/6 287/2/6
f 284/2/6 278/2/6 288/2/6
f 287/2/6 284/2/6 288/2/6
f 289/2/6 290/2/6 291/2/6
f 291/2/6 290/2/6 292/2/6
f 293/2/6 294/2/6 295/2/6
f 295/2/6 294/2/6 296/2/6
f 296/2/6 294/2/6 297/2/6
f 297/2/6 294/2/6 298/2/6
f 296/2/6 297/2/6 299/2/6
f 299/2/6 297/2/6 300/2/6
