# MagicaVoxel @ Ephtracy

# material
mtllib walle head.mtl
usemtl palette

# normals
vn -1 0 0
vn 1 0 0
vn 0 0 1
vn 0 0 -1
vn 0 -1 0
vn 0 1 0

# texcoords
vt 0.00195312 0.5
vt 0.0761719 0.5
vt 0.380859 0.5

# verts
v -14 0 10
v -14 0 -6
v -14 12 10
v -14 12 -6
v -6 0 -6
v -6 0 -10
v -6 12 -6
v -6 12 -10
v 12 2 10
v 12 2 9
v 12 10 10
v 12 10 9
v -12 2 10
v -12 2 9
v -12 10 10
v -12 10 9
v 6 0 -6
v 6 0 -10
v 6 12 -6
v 6 12 -10
v 14 0 10
v 14 0 -6
v 14 12 10
v 14 12 -6
v -14 0 10
v -14 12 10
v -12 2 10
v -12 10 10
v 12 2 10
v 12 10 10
v 14 0 10
v 14 12 10
v -12 2 9
v -12 10 9
v -8 4 9
v -8 8 9
v -4 4 9
v -4 8 9
v 4 4 9
v 4 8 9
v 8 4 9
v 8 8 9
v 12 2 9
v 12 10 9
v -14 0 -6
v -14 12 -6
v -6 0 -6
v -6 12 -6
v 6 0 -6
v 6 12 -6
v 14 0 -6
v 14 12 -6
v -6 0 -10
v -6 12 -10
v 6 0 -10
v 6 12 -10
v -14 0 10
v 14 0 10
v -14 0 -6
v -6 0 -6
v 6 0 -6
v 14 0 -6
v -6 0 -10
v 6 0 -10
v -12 10 10
v 12 10 10
v -12 10 9
v 12 10 9
v -12 2 10
v 12 2 10
v -12 2 9
v 12 2 9
v -14 12 10
v 14 12 10
v -14 12 -6
v -6 12 -6
v 6 12 -6
v 14 12 -6
v -6 12 -10
v 6 12 -10

# faces
f 3/2/1 2/2/1 1/2/1
f 4/2/1 2/2/1 3/2/1
f 7/2/1 6/2/1 5/2/1
f 8/2/1 6/2/1 7/2/1
f 11/2/1 10/2/1 9/2/1
f 12/2/1 10/2/1 11/2/1
f 13/2/2 14/2/2 15/2/2
f 15/2/2 14/2/2 16/2/2
f 17/2/2 18/2/2 19/2/2
f 19/2/2 18/2/2 20/2/2
f 21/2/2 22/2/2 23/2/2
f 23/2/2 22/2/2 24/2/2
f 27/2/3 26/2/3 25/2/3
f 28/2/3 26/2/3 27/2/3
f 29/2/3 27/2/3 25/2/3
f 30/2/3 26/2/3 28/2/3
f 31/2/3 29/2/3 25/2/3
f 31/2/3 30/2/3 29/2/3
f 32/2/3 26/2/3 30/2/3
f 32/2/3 30/2/3 31/2/3
f 35/3/3 34/3/3 33/3/3
f 36/3/3 34/3/3 35/3/3
f 37/3/3 35/3/3 33/3/3
f 37/1/3 36/1/3 35/1/3
f 38/3/3 34/3/3 36/3/3
f 38/1/3 36/1/3 37/1/3
f 39/3/3 37/3/3 33/3/3
f 39/3/3 38/3/3 37/3/3
f 40/3/3 34/3/3 38/3/3
f 40/3/3 38/3/3 39/3/3
f 41/3/3 39/3/3 33/3/3
f 41/1/3 40/1/3 39/1/3
f 42/3/3 34/3/3 40/3/3
f 42/1/3 40/1/3 41/1/3
f 43/3/3 41/3/3 33/3/3
f 43/3/3 42/3/3 41/3/3
f 44/3/3 34/3/3 42/3/3
f 44/3/3 42/3/3 43/3/3
f 45/2/4 46/2/4 47/2/4
f 47/2/4 46/2/4 48/2/4
f 49/2/4 50/2/4 51/2/4
f 51/2/4 50/2/4 52/2/4
f 53/2/4 54/2/4 55/2/4
f 55/2/4 54/2/4 56/2/4
f 59/2/5 58/2/5 57/2/5
f 60/2/5 58/2/5 59/2/5
f 61/2/5 58/2/5 60/2/5
f 62/2/5 58/2/5 61/2/5
f 63/2/5 61/2/5 60/2/5
f 64/2/5 61/2/5 63/2/5
f 67/2/5 66/2/5 65/2/5
f 68/2/5 66/2/5 67/2/5
f 69/2/6 70/2/6 71/2/6
f 71/2/6 70/2/6 72/2/6
f 73/2/6 74/2/6 75/2/6
f 75/2/6 74/2/6 76/2/6
f 76/2/6 74/2/6 77/2/6
f 77/2/6 74/2/6 78/2/6
f 76/2/6 77/2/6 79/2/6
f 79/2/6 77/2/6 80/2/6
