# MagicaVoxel @ Ephtracy

# material
mtllib walle head.mtl
usemtl palette

# normals
vn -1 0 0
vn 1 0 0
vn 0 0 1
vn 0 0 -1
vn 0 -1 0
vn 0 1 0

# texcoords
vt 0.00195312 0.5
vt 0.0761719 0.5
vt 0.380859 0.5

# verts
v -7 2 5
v -7 2 -3
v -7 8 5
v -7 8 -3
v -3 2 -3
v -3 2 -5
v -3 8 -3
v -3 8 -5
v -2 0 2
v -2 0 -1
v -2 2 2
v -2 2 -1
v 6 3 5
v 6 3 3
v 6 7 5
v 6 7 3
v -6 3 5
v -6 3 3
v -6 7 5
v -6 7 3
v 2 0 2
v 2 0 -1
v 2 2 2
v 2 2 -1
v 3 2 -3
v 3 2 -5
v 3 8 -3
v 3 8 -5
v 7 2 5
v 7 2 -3
v 7 8 5
v 7 8 -3
v -7 2 5
v -7 8 5
v -6 3 5
v -6 7 5
v 6 3 5
v 6 7 5
v 7 2 5
v 7 8 5
v -6 3 3
v -6 7 3
v -4 4 3
v -4 6 3
v -2 4 3
v -2 6 3
v 2 4 3
v 2 6 3
v 4 4 3
v 4 6 3
v 6 3 3
v 6 7 3
v -2 0 2
v -2 2 2
v 2 0 2
v 2 2 2
v -2 0 -1
v -2 2 -1
v 2 0 -1
v 2 2 -1
v -7 2 -3
v -7 8 -3
v -3 2 -3
v -3 8 -3
v 3 2 -3
v 3 8 -3
v 7 2 -3
v 7 8 -3
v -3 2 -5
v -3 8 -5
v 3 2 -5
v 3 8 -5
v -2 0 2
v 2 0 2
v -2 0 -1
v 2 0 -1
v -7 2 5
v 7 2 5
v -2 2 2
v 2 2 2
v -2 2 -1
v 2 2 -1
v -7 2 -3
v -3 2 -3
v 3 2 -3
v 7 2 -3
v -3 2 -5
v 3 2 -5
v -6 7 5
v 6 7 5
v -6 7 3
v 6 7 3
v -6 3 5
v 6 3 5
v -6 3 3
v 6 3 3
v -7 8 5
v 7 8 5
v -7 8 -3
v -3 8 -3
v 3 8 -3
v 7 8 -3
v -3 8 -5
v 3 8 -5

# faces
f 3/2/1 2/2/1 1/2/1
f 4/2/1 2/2/1 3/2/1
f 7/2/1 6/2/1 5/2/1
f 8/2/1 6/2/1 7/2/1
f 11/2/1 10/2/1 9/2/1
f 12/2/1 10/2/1 11/2/1
f 15/2/1 14/2/1 13/2/1
f 16/2/1 14/2/1 15/2/1
f 17/2/2 18/2/2 19/2/2
f 19/2/2 18/2/2 20/2/2
f 21/2/2 22/2/2 23/2/2
f 23/2/2 22/2/2 24/2/2
f 25/2/2 26/2/2 27/2/2
f 27/2/2 26/2/2 28/2/2
f 29/2/2 30/2/2 31/2/2
f 31/2/2 30/2/2 32/2/2
f 35/2/3 34/2/3 33/2/3
f 36/2/3 34/2/3 35/2/3
f 37/2/3 35/2/3 33/2/3
f 38/2/3 34/2/3 36/2/3
f 39/2/3 37/2/3 33/2/3
f 39/2/3 38/2/3 37/2/3
f 40/2/3 34/2/3 38/2/3
f 40/2/3 38/2/3 39/2/3
f 43/3/3 42/3/3 41/3/3
f 44/3/3 42/3/3 43/3/3
f 45/3/3 43/3/3 41/3/3
f 45/1/3 44/1/3 43/1/3
f 46/3/3 42/3/3 44/3/3
f 46/1/3 44/1/3 45/1/3
f 47/3/3 45/3/3 41/3/3
f 47/3/3 46/3/3 45/3/3
f 48/3/3 42/3/3 46/3/3
f 48/3/3 46/3/3 47/3/3
f 49/3/3 47/3/3 41/3/3
f 49/1/3 48/1/3 47/1/3
f 50/3/3 42/3/3 48/3/3
f 50/1/3 48/1/3 49/1/3
f 51/3/3 49/3/3 41/3/3
f 51/3/3 50/3/3 49/3/3
f 52/3/3 42/3/3 50/3/3
f 52/3/3 50/3/3 51/3/3
f 55/2/3 54/2/3 53/2/3
f 56/2/3 54/2/3 55/2/3
f 57/2/4 58/2/4 59/2/4
f 59/2/4 58/2/4 60/2/4
f 61/2/4 62/2/4 63/2/4
f 63/2/4 62/2/4 64/2/4
f 65/2/4 66/2/4 67/2/4
f 67/2/4 66/2/4 68/2/4
f 69/2/4 70/2/4 71/2/4
f 71/2/4 70/2/4 72/2/4
f 75/2/5 74/2/5 73/2/5
f 76/2/5 74/2/5 75/2/5
f 79/2/5 78/2/5 77/2/5
f 80/2/5 78/2/5 79/2/5
f 81/2/5 79/2/5 77/2/5
f 82/2/5 78/2/5 80/2/5
f 83/2/5 81/2/5 77/2/5
f 83/2/5 82/2/5 81/2/5
f 84/2/5 82/2/5 83/2/5
f 85/2/5 78/2/5 82/2/5
f 85/2/5 82/2/5 84/2/5
f 86/2/5 78/2/5 85/2/5
f 87/2/5 85/2/5 84/2/5
f 88/2/5 85/2/5 87/2/5
f 91/2/5 90/2/5 89/2/5
f 92/2/5 90/2/5 91/2/5
f 93/2/6 94/2/6 95/2/6
f 95/2/6 94/2/6 96/2/6
f 97/2/6 98/2/6 99/2/6
f 99/2/6 98/2/6 100/2/6
f 100/2/6 98/2/6 101/2/6
f 101/2/6 98/2/6 102/2/6
f 100/2/6 101/2/6 103/2/6
f 103/2/6 101/2/6 104/2/6
